<?xml version="1.0" encoding="UTF-8"?>
<svg height="1124.0px" preserveAspectRatio="none" viewBox="0 0 313.0 1124.0" width="313.0px" xmlns="http://www.w3.org/2000/svg" xmlns:xlink="http://www.w3.org/1999/xlink"><g id="s20-20" transform="translate(20, 20)"><g transform="translate(-0.0, -0.0)"><title>circleBtn</title><path d="M71.9 35.2l-.2-.7v-.3c0-.4-.3-.8-.6-1.1v-.5a1.7 1.7 0 0 0-.3-1.5v-.2-.3-.2l-.3-.9a1.8 1.8 0 0 0-.4-2l-.2-.3c0-.4 0-.6-.2-.9a1.8 1.8 0 0 0-.2-1v-.2-.2c0-.3-.1-.5-.3-.7.2-.4.2-.7.2-1V23a1.8 1.8 0 0 0-.6-1.6l-.2-.4c-.2-.4-.5-.7-.8-.8l-.2-.3a1.8 1.8 0 0 0-1-1.6c-.2-.3-.4-.6-.7-.7l-.2-.1v-.2l-.2-.3c0-.1 0-.2-.2-.3l-.1-.8c-.3-.5-.7-.8-1.2-1v-.2l-.2-.2-.1-.4-.3-.4a1.8 1.8 0 0 0-.7-1.2l-.4-.4a1.8 1.8 0 0 0-1.2-1.2l-.5-.8-.5-.3c-.2-.2-.6-.3-.9-.4v-.1H59c0-.2-.2-.3-.3-.4-.1-.2-.3-.3-.5-.3l-.4-.4c0-.2-.2-.2-.4-.3l-.3-.2s0-.2-.2-.2c-.3-.4-.8-.5-1.3-.4l-.1-.1a1.8 1.8 0 0 0-1.3-1l-.2-.2-.7-.4-.2-.1a1.8 1.8 0 0 0-1.1-1c-.1 0-.2 0-.3-.2-.2-.2-.6-.3-1-.4-.1-.2-.3-.3-.4-.3l-.3-.2-.9-.3h-.4a1.8 1.8 0 0 0-1.4-.4 1.8 1.8 0 0 0-.7-.2l-.1-.1h-1.1l-.6-.3c-.4-.2-.8-.2-1.2 0l-.5-.2-.5-.3h-.7c-.2-.1-.5-.2-.7-.1h-.5-.1a1.8 1.8 0 0 0-2-.5h-.1a1.8 1.8 0 0 0-2.2-.4h-.1c-.5 0-1 0-1.3.3a1.8 1.8 0 0 0-1.2 0l-.5.2H32.5 32c-.5 0-1 .2-1.2.5a1.8 1.8 0 0 0-2 .3h-.5-.8c-.4 0-.7.2-1 .4-.5 0-.9.3-1.2.6h-.2a1.8 1.8 0 0 0-1.8.2 1.8 1.8 0 0 0-2.2 1 1.8 1.8 0 0 0-1 .7 1.8 1.8 0 0 0-2 1.2L18 6h-.2l-.4.2-.4.3h-.1a1.8 1.8 0 0 0-1 .7h-.1l-.3.1-.7.6-.4.5a1.8 1.8 0 0 0-1.5 1h-.1l-.4.2h-.1l-.5.3c-.4.1-.7.5-.9.8l-.3.3a1.8 1.8 0 0 0-1 1l-.2.3-.4.8-.1.2a1.8 1.8 0 0 0-1 1.4v.1l-.4.3c-.3.4-.4.8-.4 1.2l-.4.3c-.2.4-.4.7-.4 1.1l-.2.4a1.8 1.8 0 0 0-.9.8 1.8 1.8 0 0 0-1 1.4l-.3.6a1.8 1.8 0 0 0-.7 1L3 22c-.3.5-.3 1-.1 1.5a1.8 1.8 0 0 0-.3 1.2v.1a1.8 1.8 0 0 0-.4 2.2v.1a1.8 1.8 0 0 0-.5 1.8 1.8 1.8 0 0 0-.4 1.3 1.8 1.8 0 0 0-.3.7v.2c-.2.3-.2.5-.2.8V32.2l-.1.8-.1.3-.1.8v.3l-.1.4-.1.2v.2a1.8 1.8 0 0 0-.3 1v.2c0 .4.3.8.6 1.1v.5c0 .2 0 .5.2.7v.3l.1.4a1.8 1.8 0 0 0 0 1.2v.2c0 .3 0 .5.2.7 0 .3.1.5.3.7v.7a1.8 1.8 0 0 0 .4 1.7v.6c0 .3.1.7.4 1a1.8 1.8 0 0 0 .1 1.4l.2.6v.3c0 .2 0 .4.2.5a1.8 1.8 0 0 0 .9 2l.5.4.2.4v.1l.7.7.2.3.1.1c0 .3 0 .6.2.9l.3.4.2.6.6.7.1.2.5.6.3.4.2.4c0 .2.3.4.5.6a1.8 1.8 0 0 0 .5.9l.2.4.8.8c0 .2 0 .4.2.5l.1.6c.3.4.7.8 1 .9l.4.3.5.3c.3.3.6.4 1 .4 0 .2.2.4.4.6.2.1.4.3.7.3a1.8 1.8 0 0 0 1.3.7l.3.2a1.8 1.8 0 0 0 1 1 1.8 1.8 0 0 0 1 .7h.2l.1.2c.3.2.7.4 1 .4l.4.1a1.8 1.8 0 0 0 1.4 1.2h.4c0 .2.1.2.2.3h.1a1.8 1.8 0 0 0 2 .8l.8.1h.4c.2.2.3.3.5.3h.4l.1.1h.1l.5.3h1.2l.4-.1h.1l.5.1.6.3h.2l.3.2h.6c.3.2.6.2.8.1l.3.2h.5l.7.2.4.2h.4l.2.1c.4.2.8.1 1.2 0l.5.2h.8c.3.1.6 0 .8 0H38c.5 0 1-.2 1.3-.6h.1c.3.1.5.2.8.1.3 0 .5 0 .8-.2h.3l.8-.2.3-.1a1.8 1.8 0 0 0 1.7-.5h1.1c.4 0 .8-.1 1-.4h.6c.3 0 .5 0 .7-.2a1.8 1.8 0 0 0 1.5-.4c.3 0 .6-.2.9-.4l.4-.2h.2l.3-.3a1.8 1.8 0 0 0 1.3-.5l.5-.5.4-.1.1-.1a1.8 1.8 0 0 0 .7-.3l.2-.1.7-.6.2-.1.6-.5a1.8 1.8 0 0 0 1-.8h.2l.2-.2a1.8 1.8 0 0 0 .7-.3h.1c.4-.3.6-.5.8-.9l.6-.1c.4-.2.6-.5.8-.9l.2-.1a1.8 1.8 0 0 0 1.8-1.4l.2-.5a1.8 1.8 0 0 0 .5-.6 1.8 1.8 0 0 0 .9-.9c.3-.4.5-.8.4-1.3a1.8 1.8 0 0 0 .5-.5 1.8 1.8 0 0 0 1.1-1.8l.3-.5.3-.2.2-.4.1-.1c.2-.2.4-.5.4-.8.3 0 .5-.3.7-.5l.4-.5.4-.4.4-.8v-.2c.4-.3.6-.8.5-1.3l.1-.2a1.8 1.8 0 0 0 .4-1.8v-.2-.5l.2-.4v-.8l.1-.1.4-.7V44v-1l.2-.3v-.3a1.8 1.8 0 0 0 .6-1.8v-.4l.1-.3v-.1l.2-.4.1-.5v-1.1a1.8 1.8 0 0 0 .4-1 1.8 1.8 0 0 0 0-1.5" fill="#FFF" fill-rule="evenodd"/></g></g><g id="s20-112" transform="translate(20, 112.0)"><g transform="translate(-0.0, -0.0)"><title>houseIcon</title><path d="M55 36h-.3a1.7 1.7 0 0 0-1.4.2 1.7 1.7 0 0 0-1 2.5 1.7 1.7 0 0 0-.2 1.8 1.7 1.7 0 0 0 0 1.4l.3.6a1.7 1.7 0 0 0 .1 1.5 1.7 1.7 0 0 0 0 1.2 1.7 1.7 0 0 0-.1.6 1.7 1.7 0 0 0 0 1.3v.5a1.7 1.7 0 0 0-.1 1.3l.1.9a1.7 1.7 0 0 0-.2 1 1.7 1.7 0 0 0 .2 1.2v.4a1.7 1.7 0 0 0-.2 1.3 1.7 1.7 0 0 0 .1 1.5v.4a1.7 1.7 0 0 0-.1 1.6v.2a1.7 1.7 0 0 0 0 1.3 1.7 1.7 0 0 0-.1.6 1.8 1.8 0 0 0 0 .6h-.3l-.5-.2h-.5l-1 .1a1.7 1.7 0 0 0-1.9 0l-.6-.2V59a1.7 1.7 0 0 0-.1-1.2v-.3c0-.3 0-.6-.2-.8a1.7 1.7 0 0 0 .2-1.4v-.3-.1-.1a1.7 1.7 0 0 0 0-1.3 1.7 1.7 0 0 0-.1-1.2L47 52l-.1-.5v-.2a1.7 1.7 0 0 0 .2-1V50c0-.3 0-.6-.2-1a1.7 1.7 0 0 0 .1-1.3 1.7 1.7 0 0 0-.3-1.6 1.7 1.7 0 0 0-2.6-.9l-.8.2a1.7 1.7 0 0 0-1.2.2 1.7 1.7 0 0 0-1 .2H41c-.2-.1-.4-.2-.6-.1-.2 0-.7-.4-1-.3l-.4.1a1.7 1.7 0 0 0-1.2.1 1.7 1.7 0 0 0-1 .1h-.4a1.7 1.7 0 0 0-1.7 2v.8a1.7 1.7 0 0 0 0 1.2 1.7 1.7 0 0 0 0 .4c-.3.3-.4.6-.5 1 0 .3.3 1.1.5 1.4l.1.2a1.8 1.8 0 0 0 0 .7 1.7 1.7 0 0 0-.1.6 1.7 1.7 0 0 0-.2 1.4v.4l.1.6.1.6a1.7 1.7 0 0 0 0 2.2l-.1.3a1.7 1.7 0 0 0-1 .1h-.8-.1a1.7 1.7 0 0 0-1.2 0h-.6a1.7 1.7 0 0 0-.6 0 1.6 1.6 0 0 0-.6 0 1.7 1.7 0 0 0-.9-.1V59l-.1-.7a1.7 1.7 0 0 0-.2-1.4l.2-.4a1.7 1.7 0 0 0 0-1.7 1.7 1.7 0 0 0 0-1.1 1.7 1.7 0 0 0 .1-1.3 1.7 1.7 0 0 0 .2-1.8 1.7 1.7 0 0 0 .2-1v-.1-.7-.5a1.7 1.7 0 0 0 .1-.8v-.1c.1-.4 0-.8-.2-1.2V46a1.7 1.7 0 0 0 .1-1.6v-.8-.2c.2-.2.3-.4.3-.7l-.4-.8a1.7 1.7 0 0 0 .1-1.2 1.7 1.7 0 0 0 0-1.3l.2-.6c.1-1-.5-1.8-1.4-2l-.3-.1H25.8h-.1l-.5-.4a1.7 1.7 0 0 0 1-.9 1.7 1.7 0 0 0 .6-.4 1.7 1.7 0 0 0 1-1h.2l.4-.4.4-.3V33c.3-.2.5-.4.6-.7a1.7 1.7 0 0 0 1.2-.8l.3-.2.6-.9.2-.2.2-.2c.2 0 .3-.2.4-.4.2 0 .4 0 .5-.2l.4-.4c.3-.2.5-.5.6-.8l.2-.2.3-.1.4-.4c.3-.2.5-.5.6-.8a1.7 1.7 0 0 0 1-.6 1.7 1.7 0 0 0 1.1-1.1l.1-.1.4-.2c.4-.3.6-.6.7-1l.2-.2a1.7 1.7 0 0 0 1-.6c.4-.3.6-.6.7-.9a1.7 1.7 0 0 0 1.1-1h.1a1.7 1.7 0 0 0 .4.6 1.7 1.7 0 0 0 1 1.1v.3l.6.5a1.7 1.7 0 0 0 1 1l.8.5.4.3.1.2.2.1a1.7 1.7 0 0 0 .4.6c0 .2.1.5.3.7l.7.5v.2h.1l.3.5.5.4a1.7 1.7 0 0 0 1 1h.1a1.7 1.7 0 0 0 .5.8l.6.6.3.2c0 .2 0 .3.2.5.3.4.8.7 1.3.7l.1.1.3.6.3.3.3.6.7.5.4.3a1.7 1.7 0 0 0 .6 1v.2H55M38 53.5l.2-.4c0-.4-.3-1-.5-1.4a1.7 1.7 0 0 0 .2-1.2v-.1a1.7 1.7 0 0 0 .1-1.1l.5-.1h.5c.4 0 1 .3 1.3 0h.6a1.7 1.7 0 0 0 1.3 0 1.7 1.7 0 0 0 1-.3l.2.6c0 .3.1.6.3.8l-.2.5v.1a1.7 1.7 0 0 0 .1 1.5v.3l.2.5a1.7 1.7 0 0 0 0 1.1 1.7 1.7 0 0 0 0 .7v.5a1.7 1.7 0 0 0-.2 1.4l.1.7.1.3v.6a1.7 1.7 0 0 0 0 .7 1.7 1.7 0 0 0-.3 1v.2l-.4.1h-.2a1.3 1.3 0 0 0-1.2 0h-.3l-.5.2a1.3 1.3 0 0 0-1-.2h-.5l-.6-.3c-.3 0-.6 0-.9.2l.1-.4a1.7 1.7 0 0 0 .1-1.1L38 58a1.7 1.7 0 0 0 0-.4v-.3-1l-.1-.2v-.5a1.7 1.7 0 0 0 .1-2.1m22.4-17c0-.3-.1-.6-.3-.8l-.4-.4c0-.2-.2-.3-.3-.5l-.2-.3H59c0-.2-.2-.3-.3-.4-.3-.5-.7-.7-1.1-.8l-.1-.1c0-.3-.1-.5-.3-.8-.2-.3-.6-.5-1-.6 0-.2 0-.3-.2-.5l-.5-.5a1.7 1.7 0 0 0-.5-.5V30c-.3-.3-.5-.5-.9-.6l-.3-.2-.1-.2-.6-.5-.4-.3c0-.3-.2-.6-.4-.9-.2-.3-.5-.5-.9-.6l-.2-.5-.8-.5v-.2l-.3-.3H50c0-.2-.2-.3-.3-.4a1.7 1.7 0 0 0-.8-1 1.7 1.7 0 0 0-.5-.6V23l-.7-.5-.6-.4-.3-.4a1.7 1.7 0 0 0-.8-1c0-.2 0-.3-.2-.5-.2-.3-.6-.5-1-.6l-.2-.2v-.1l-.2-.2s0-.2-.2-.3l-.5-.5-.2-.3c-.3-.4-.7-.6-1.1-.7a1.7 1.7 0 0 0-2.6.5l-.3.3a1.7 1.7 0 0 0-.9.7l-.3.2c-.2 0-.3.2-.4.3-.4.3-.6.6-.7 1-.1 0-.3 0-.5.2l-.5.8H36l-.5.8h-.2l-.2.3H35l-.4.6-.4.2-.3.3a1.7 1.7 0 0 0-1.1.8c-.3.2-.5.5-.5.9h-.1a1.7 1.7 0 0 0-1.6 1.4l-.4.2-.3.4c-.2 0-.4 0-.5.2-.4.3-.7.7-.7 1.2l-.3.2-.2.2a1.7 1.7 0 0 0-1.3 1l-.3.4v.1h-.1l-.4.4-.3.3h-.1l-.2.3a1.7 1.7 0 0 0-1.3.8 1.7 1.7 0 0 0-.7.6 1.7 1.7 0 0 0-1 .8 1.7 1.7 0 0 0-.8.8h-.2l-.5.7-.2.1c-.7.5-1 1.3-.7 2 0 .8.5 1.4 1.2 1.7l.3.1a1.7 1.7 0 0 0 1.8.4h.3a1.7 1.7 0 0 0 1.6.4v.2c0 .4 0 .8.2 1.1v.7l.3.6v.2a1.7 1.7 0 0 0 0 1 1.7 1.7 0 0 0-.2 1 1.7 1.7 0 0 0 0 1.2 1.7 1.7 0 0 0 0 1.4 1.7 1.7 0 0 0 .1 2v.1l-.2.6a1.7 1.7 0 0 0 0 1.4v.1a1.7 1.7 0 0 0-.3 1.3 1.7 1.7 0 0 0 0 1.3 1.7 1.7 0 0 0 0 .7v1a1.7 1.7 0 0 0-.2 1.3c0 .3 0 .6.2.9v1l-.3.6a1.7 1.7 0 0 0 .1 1.8 1.7 1.7 0 0 0 1.2 1.4l.6.3a1.7 1.7 0 0 0 1.9 0 1.7 1.7 0 0 0 1.4 0 1.7 1.7 0 0 0 2-.2h.1a1.7 1.7 0 0 0 1.5.2h.1a1.7 1.7 0 0 0 1.6 0h.7l.5-.2a1.3 1.3 0 0 0 .8.2h.1c.3.1.6 0 .9-.1h.4v.1H40a1.3 1.3 0 0 0 1.1.1l.6-.1h.3l.3-.1a1.3 1.3 0 0 0 .7 0h1a1.3 1.3 0 0 0 1 .3H45.9l.4.1h.4c.3 0 .6 0 .9-.2h1a1.7 1.7 0 0 0 1.7 0l.5-.2h.2a1.7 1.7 0 0 0 1 .2h1.4c.2 0 .5-.1.7-.3.5 0 1-.4 1.2-.8a1.7 1.7 0 0 0 .3-2.5v-.1a1.7 1.7 0 0 0 0-.3 1.7 1.7 0 0 0 0-1.1 1.7 1.7 0 0 0 .3-1.9v-.8a1.7 1.7 0 0 0 0-1.2 1.7 1.7 0 0 0 0-.7 1.7 1.7 0 0 0 0-1.6l-.1-1a1.7 1.7 0 0 0 .2-1.5c0-.2 0-.5-.2-.7a1.7 1.7 0 0 0 .2-1.3 1.7 1.7 0 0 0 0-1.2 1.7 1.7 0 0 0 0-1.9V44l-.1-1c0-.3-.3-.7-.4-1v-.3l.2-.6a1.7 1.7 0 0 0 .1-1.3 1.7 1.7 0 0 0 1.1 0c.4.1.7 0 1-.1a1.7 1.7 0 0 0 2-.3l.8-.7c.4-.7.3-1.5-.2-2" fill="#511037" fill-rule="evenodd"/></g></g><g id="s20-212" transform="translate(20, 212.0)"><g transform="translate(-0.0, -0.0)"><title>refreshIcon</title><g fill="none" fill-rule="evenodd"><path d="M71.8 35.2l-.2-.7v-.3c0-.5-.2-.9-.6-1.2v-.4a1.8 1.8 0 0 0-.3-1.6v-.4-.3c0-.3-.1-.6-.3-.8a1.8 1.8 0 0 0-.4-2s0-.2-.2-.3V27c0-.3 0-.6-.2-.8a1.8 1.8 0 0 0-.2-1V25v-.2c0-.2-.1-.5-.3-.7.2-.3.3-.6.2-1V23a1.8 1.8 0 0 0-.6-1.6c0-.1 0-.3-.2-.4-.2-.4-.5-.7-.8-.8l-.2-.3a1.8 1.8 0 0 0-1-1.6l-.7-.7-.1-.1-.2-.2v-.3l-.2-.3c0-.3 0-.6-.2-.8-.3-.5-.7-.8-1.1-1l-.2-.3v-.1l-.2-.4-.3-.4c0-.2 0-.4-.2-.6 0-.3-.3-.5-.5-.6 0-.2-.2-.3-.4-.4v-.4c-.3-.4-.7-.7-1.2-.9 0-.3-.2-.5-.5-.7l-.5-.3c-.2-.2-.5-.4-.8-.4l-.2-.1-.4-.5-.5-.3-.3-.4-.5-.3-.2-.2-.2-.2c-.4-.3-1-.4-1.4-.4l-.1-.1a1.8 1.8 0 0 0-1.3-1l-.1-.2-.8-.4H53c0-.3-.2-.5-.4-.6l-.7-.4-.2-.2c-.3-.3-.6-.4-1-.5l-.5-.3-.3-.2c-.2-.2-.5-.2-.8-.2l-.4-.1a1.8 1.8 0 0 0-1.5-.4 1.8 1.8 0 0 0-.6-.2l-.2-.1h-1c-.3-.1-.4-.3-.7-.3-.4-.2-.8-.1-1.2 0l-.4-.2-.6-.3h-.7l-.7-.1h-.4-.2a1.8 1.8 0 0 0-2-.5h-.1a1.8 1.8 0 0 0-2.2-.4c-.5 0-1 .1-1.3.4a1.8 1.8 0 0 0-1.2 0l-.5.1h-.1-.6-.6c-.4 0-.9.2-1.2.6a1.8 1.8 0 0 0-2 .2h-.4-.8c-.4 0-.7.2-1 .4-.5 0-.9.3-1.2.6h-.2a1.8 1.8 0 0 0-1.8.2 1.8 1.8 0 0 0-2.3 1 1.8 1.8 0 0 0-1 .7 1.8 1.8 0 0 0-1.8 1.3h-.4l-.1.2-.4.1-.4.3-.1.1a1.8 1.8 0 0 0-1 .6h-.1l-.3.2-.7.5-.4.5a1.8 1.8 0 0 0-1.6 1c-.2 0-.3.2-.4.3h-.1l-.5.2c-.4.2-.7.5-.9.9l-.3.2a1.8 1.8 0 0 0-1 1.1l-.2.3-.4.8-.1.2a1.8 1.8 0 0 0-1 1.4v.1l-.4.3c-.3.4-.4.8-.4 1.2l-.4.3c-.2.3-.4.7-.4 1.1L6 18a1.8 1.8 0 0 0-.9.8 1.8 1.8 0 0 0-1 1.5l-.3.6a1.8 1.8 0 0 0-.7 1H3c-.3.5-.3 1-.1 1.6a1.8 1.8 0 0 0-.3 1.2 1.8 1.8 0 0 0-.4 2.3 1.8 1.8 0 0 0-.5 1.9 1.8 1.8 0 0 0-.4 1.2 1.8 1.8 0 0 0-.3.7v.3c-.2.2-.2.5-.2.8v.2l-.1 1-.1.2-.1.8v.3l-.1.4-.1.2v.2a1.8 1.8 0 0 0-.3 1v.2c0 .4.3.9.6 1.2v.4c0 .3 0 .5.2.7v.3l.1.4a1.8 1.8 0 0 0 0 1.2v.2c0 .3 0 .5.2.8l.3.6v.7a1.8 1.8 0 0 0 .4 1.7v.6c0 .4.1.7.4 1a1.8 1.8 0 0 0 .1 1.5l.2.5v.3c0 .2 0 .4.2.6v1c.1.4.5.8.9 1l.5.4.2.4v.1l.7.7.2.3.1.1c0 .3 0 .6.2.9l.3.4.2.6.6.7.1.2.5.6.3.4c0 .1 0 .3.2.4 0 .2.3.4.5.6a1.8 1.8 0 0 0 .5.9c0 .1 0 .3.2.4.1.4.4.6.8.8l.1.6.2.5c.3.5.6.8 1 1 .2 0 .3.2.4.3l.4.2c.3.3.7.5 1 .5l.4.5.8.4a1.8 1.8 0 0 0 1.3.6l.3.3a1.8 1.8 0 0 0 1 1 1.8 1.8 0 0 0 1 .6l.2.1.1.2 1 .4.4.1a1.8 1.8 0 0 0 1.4 1.1l.4.2.2.2h.1a1.8 1.8 0 0 0 2 .8l.8.1h.4l.5.3h.4l.1.1.5.3h1.3l.3-.1h.2l.5.1.5.3h.3l.3.2h.6c.2.2.5.2.8.1l.2.1.5.1c.3.1.5.2.7.1l.5.3h.4l.1.1c.5.2.9.1 1.3 0l.4.2H36c.3.1.5 0 .8 0h1.2c.5 0 1-.2 1.2-.6h.2l.8.1c.2 0 .5 0 .7-.2h.4l.7-.2.3-.1a1.8 1.8 0 0 0 1.8-.5h1c.4 0 .8-.2 1-.4h.7l.7-.2a1.8 1.8 0 0 0 1.4-.5c.4 0 .7-.1 1-.3l.3-.2h.2l.3-.3A1.8 1.8 0 0 0 52 68c.2 0 .3-.2.5-.4l.3-.1.2-.1a1.8 1.8 0 0 0 .7-.4h.1c.3-.2.6-.4.7-.7h.2l.6-.5a1.8 1.8 0 0 0 1-.8l.2-.1.2-.1a1.8 1.8 0 0 0 .7-.4h.1c.4-.2.7-.5.8-.8a1.8 1.8 0 0 0 1.4-1l.2-.2a1.8 1.8 0 0 0 1.9-1.4l.2-.4a1.8 1.8 0 0 0 .5-.7 1.8 1.8 0 0 0 .8-.9c.3-.3.5-.8.5-1.3a1.8 1.8 0 0 0 .4-.5 1.8 1.8 0 0 0 1.1-1.8l.3-.5.3-.2.2-.4.1-.1c.2-.2.4-.5.4-.8l.8-.5c0-.2.2-.3.3-.5l.4-.4c.2-.2.3-.5.4-.9h.1c.3-.5.5-1 .4-1.4l.1-.2a1.8 1.8 0 0 0 .4-1.9v-.1-.5l.2-.4c0-.3.1-.5 0-.8l.1-.2c.2-.1.4-.4.4-.6v-1-.9l.2-.4v-.3a1.8 1.8 0 0 0 .6-1.8v-.3l.1-.3v-.2l.2-.4.1-.5c.2-.4.1-.8 0-1.1a1.8 1.8 0 0 0 .4-1 1.8 1.8 0 0 0 0-1.5" fill="#FFF" opacity=".6"/><path d="M58 40.4c0-.6-.1-1-.4-1.5v-.2-.5a2.8 2.8 0 0 0 0-1.8c0-.4 0-.9-.2-1.2v-.3c0-.4 0-.8-.2-1.1l-.2-.9-.2-.6-.3-1.2c0-.3 0-.6-.2-.9l-.1-.3-.1-.4c-.2-.5-.5-1-.9-1.2a2.8 2.8 0 0 0-.4-1.4v-.2c-.2-.5-.6-1-1-1.2l-.2-.5-.1-1.1-.7-1.1-.1-.2c-.5-.6-1.1-.9-1.8-.9a2 2 0 0 0-.3 0 2 2 0 0 0-.8-.3c-.1-.4-.4-.8-.8-1-.2-.3-.5-.4-.8-.5l-.4-.3a2 2 0 0 0-2-.3h-.2a2 2 0 0 0-.3-.1l-.9-.5c-.2-.2-.5-.3-.9-.4a2 2 0 0 0-1.6.4 2 2 0 0 0-.5-.2h-.1l-.6-.2h-.3L40 18a2 2 0 0 0-1 0h-.4c-.8-.2-1.5 0-2 .6a2 2 0 0 0-2 .6h-.2a2 2 0 0 0-.7 0c-.3 0-.6.2-.9.4a2 2 0 0 0-.5 0c-.5.1-1 .4-1.2.8a2 2 0 0 0-.8 0c-.2 0-.3 0-.5.2h-.2c-.9.1-1.6.9-1.8 1.8l-.2.1-.3.7-.4.5v.1c-.3.3-.4.6-.5.9l-.2.2-.9.6c-.3.4-.5.9-.6 1.4l-.7.5-.5 1-.3.8c-.2.3-.3.6-.3 1a2.6 2.6 0 0 0-.7 1.7v1.3l-.2.3c-.2.6-.1 1.3.1 1.9-.3.3-.6.7-.7 1.2-.2.6-.2 1.3 0 1.9a2.7 2.7 0 0 0 .1 2.4v.4a2.7 2.7 0 0 0 0 1.2l-.4-.5-.6-.6-.3-.6c-.4-.4-.8-.7-1.3-.8l-.9-.7c0-.4-.2-.8-.4-1.1l-.3-.3-.2-.4c-.3-.4-.8-.7-1.2-.8l-.6-.5-.4-.7c-.5-.7-1.3-1-2-.9-.7-.2-1.5 0-2.1.6-1 .9-1 2.5-.3 3.5l.8.7.3.4.8.7.2.4c.4.4.9.7 1.4.8l.3.7h.1l.3.6.8.7.3.4c.2.3.4.5.7.6l.3.5c.3.4.7.6 1 .8l.2.1c.2.4.6.6 1 .7 0 .4.2.7.4 1l.5.5.5.5v.1c.5.5 1 .8 1.5.9.3.3.7.5 1 .6.4.6 1 1 1.6 1h.4a2 2 0 0 0 2.2-.4c.4-.3.6-.8.8-1.3l.2-.5.3-.4a2.2 2.2 0 0 0 1.1-1.3l.3-.2.5-.7a2.2 2.2 0 0 0 .9-.7l.2-.1.5-.6.6-.8.5-.8c.4 0 .7-.2 1-.5.5-.4.8-1 .9-1.6a2.2 2.2 0 0 0 .9-.9l.7-.4.6-.7c.5-.5.7-1.2.7-2 .3-.7.2-1.7-.4-2.4-.7-1.1-2.2-1.3-3.2-.4-.3.3-.6.8-.7 1.3-.3 0-.5.2-.7.4-.4.3-.7.8-.8 1.2v.1l-.7.4c-.4.3-.7.8-.8 1.3l-.2.2c-.2 0-.3.2-.4.3l-.7 1-.3.5-.3.4-.3.3-.3.2v.1a2.2 2.2 0 0 0-1.1 1v.1c-.2 0-.4.2-.5.3v-.2-.2-.6c0-.5-.1-1-.4-1.5l.2-.8-.1-.8v-1.2-.5a2.7 2.7 0 0 0 .3-1l.1-.3c.1-.3.2-.6.1-1l.1-.5.4-.8V33a2.6 2.6 0 0 0 .5-2 2.3 2.3 0 0 0 .8-1h.1l.5-.8a2.3 2.3 0 0 0 1-1.4l.2-.6.3-.3v-.1l.4-.7.2-.2.3-.3c.4.1.8.2 1.2 0 .6 0 1.2-.4 1.5-1l.6-.3h1.2l.7-.3H37.5a2 2 0 0 0 1.4-.4 2 2 0 0 0 1-.3h.1l.6.2.7.3h.3l.4.1c.5.1 1 0 1.3-.2l.8.4h.1l.9.1.7.1.5.3a2.4 2.4 0 0 0 1.1 1l.2.2c.3.2.6.3 1 .3l.5.2v.4l.6.9.2.3.7 1.1.1 1.2.6 1 .7.8c0 .3 0 .6.2 1l.3.5c0 .3 0 .6.2.8a2.7 2.7 0 0 0 0 2.7 2.7 2.7 0 0 0 .4 2.7l-.2.8-.2.5-.4.5c-.3.5-.4 1-.4 1.4l-.1.5c-.4.2-.7.5-1 .9-.3.5-.4 1-.3 1.6a2.1 2.1 0 0 0-1.3 1h-.3l-.8.6a2.1 2.1 0 0 0-1.2.7l-.6.5a2 2 0 0 0-.5 0 2 2 0 0 0-.8.1l-.4-.1h-.2l-.5-.2a2 2 0 0 0-1.3.1h-.2a2 2 0 0 0-1.3.2c-1 0-1.8.9-2 2-.3 1.4.5 2.7 1.8 3 .4 0 .8 0 1.2-.2h.2c.4.2.8.1 1.2 0H43.8l.6.3c.5.1.9 0 1.3-.1h.2l1.2.2c.4 0 .7-.2 1-.4h.2c.5-.3.8-.7 1-1.1l.8-.2c.3-.1.6-.3.8-.6A2.1 2.1 0 0 0 52 51l.6-.1c.4-.2.7-.5 1-1l.4-.4.1-.2a2.5 2.5 0 0 0 .7-1.6l.2-.9c.3-.3.6-.5.7-.8.3-.4.4-1 .4-1.4l.7-.7c.3-.5.4-1.1.3-1.7.5-.4.8-1 .8-1.8" fill="#FD0"/></g></g></g><g id="s20-304" transform="translate(20, 304.0)"><g transform="translate(-0.0, -0.0)"><title>treatIcon</title><path d="M62.8 18.8c-.2.3-.2.6-.2.9v.1l-.2.4-.3.9c0 .6.3 1.2.7 1.5v.1h.1l.1.4a1.7 1.7 0 0 0 .5 1.4l.2.4.3.6.7.5a1.8 1.8 0 0 0 1.6 1 1.8 1.8 0 0 0 1.1.7v.3l.7 1v.5l-.1.4a1.7 1.7 0 0 0-.6.9s-.2.1-.2.3c-.3.3-.4.7-.4 1a1.7 1.7 0 0 0 .3 1.9 1.7 1.7 0 0 0 .5 1.8c0 .3.1.5.3.7 0 .4.3.7.6 1h.1l.1.2.2.3.7.6.2.2.3.3.3.5c.2.4.4.7.7.9v.3l-.4.6h-.1l-.6.2c-.5-.2-1-.2-1.4 0v-.1h-.2v-.1a1.8 1.8 0 0 0-1.7-1.2h-.1c-.3-.3-.7-.4-1-.3a1.8 1.8 0 0 0-1.6-.7l-.5-.4-.5-.2a1.8 1.8 0 0 0-.8-.5l-.1-.2c-.4-.2-.8-.2-1.2-.2l-.8-.2a1.8 1.8 0 0 0-1-.8c-.4-.3-.8-.3-1.2-.3h-.1a1.7 1.7 0 0 0-.2-1l-.2-.5H59.1l.5.2.8-.1h1.2l.6.2c.4 0 .7 0 1-.3.4-.2.6-.5.7-.9a1.2 1.2 0 0 0-1.4-1.3l-.3-.2h-.9-.8-.7-1.1-.2-.2l-.5-.2c.3-.1.4-.4.4-.7.3 0 .5 0 .7-.2l.4-.7.3-.2c.2-.2.4-.5.4-.9.2-.3.1-.8-.2-1.2-.4-.5-1.1-.6-1.6-.2-.2.2-.3.3-.3.5h-.2l-.4.6-.1.2c-.3 0-.4.1-.6.3-.2 0-.3.2-.3.4l-.2.2-.3.1-.3.5-.1.2-.1-.2-.2-.3-.2-.5.4-.4.2-.5.3-.5c.3-.3.3-.8.2-1.2a1.7 1.7 0 0 0 .5-.7l.1-.1v-.1c.2-.1.3-.3.3-.4.2-.2.2-.4.3-.7.1-.2.2-.6.1-.9l.4-.4.2-.5c.2-.4.3-.7.2-1v-.1l.3-.5V22a1.7 1.7 0 0 0 1-1.7 1.7 1.7 0 0 0 .7-1.3l.2-.2.2-.6.5-.6H62.7l.1.2.1.3v.5l-.1.2M24.7 51.6c-.3.3-.4.7-.4 1l-.3.6a1.7 1.7 0 0 0-.6.7h-.1l-.2.5a1.7 1.7 0 0 0-1 1.3l-.5 1-.4.8v.2l-.6.4v.2l-.4.2c-.2.3-.3.7-.3 1A1.7 1.7 0 0 0 19 61c-.2.1-.2.2-.3.4a1.7 1.7 0 0 0-.8.8l-.2.2-.4.3h-.2l-.2-.2-.4-.7v-.1c.1-.5 0-1-.2-1.4a1.7 1.7 0 0 0 .5-1.7 1.7 1.7 0 0 0 0-1.9v-.3c0-.4-.2-.7-.4-.9l-.2-.4-.1-.2v-.7c0-.6-.6-1.2-1.2-1.4a1.8 1.8 0 0 0-1.4-1.5v-.3L13 50c0-.3-.2-.5-.4-.8l-.2-.4v-.2l.1-.6.2-.2c.1-.3.2-.7.1-1v-.1c.2-.4.3-.7.2-1.1v-.2A1.7 1.7 0 0 0 13 44v-.5l-.1-.4V43c0-.3-.2-.6-.4-.8l-.2-.4v-.2c0-.2-.2-.3-.3-.5a1.8 1.8 0 0 0-.9-1.5l-.5-.4v-.3l-.6-.5-.2-.3-.1-.3-.1-.2v-.5l.4-.5h.4a1.8 1.8 0 0 0 1.2.3l.2.1a1.8 1.8 0 0 0 1.2.9 1.8 1.8 0 0 0 1.3.5l.7.3.7.2.2.2.4.2a1.8 1.8 0 0 0 1.2.7 1.8 1.8 0 0 0 .7.4v.1c.4.2.9.3 1.3.3h.5a1.8 1.8 0 0 0 1.5 1.2l.3.2c.3.2.7.3 1 .3a1.8 1.8 0 0 0 .8.6l.1.1.2.3a1.7 1.7 0 0 0 0 1.3h-.1l-.4-.3h-.8l-.3-.2H22l-.4-.3h-.7l-.3-.1h-.1l-.3-.3h-.5l-.3-.1-.3-.1-.3-.1-.5-.1-.3-.2h-.3c-.4-.2-.8-.2-1 0-.5 0-.8.3-1 .7a1.2 1.2 0 0 0 1.4 1.6l.4.3h1.3l.1.2h.5a1.2 1.2 0 0 0 .4.3l.5.3h.7l.5.1.3.2h.1l.2.1.6.1h.1l.2.1v.1l-.1.1a1.1 1.1 0 0 0-1 .6h-.2l-.5.7v.2l-.2.1-.7.2c-.3.2-.5.5-.5.9-.2.3-.2.8 0 1.1.4.6 1 .8 1.6.4.2 0 .3-.2.4-.4h.2v-.1a1.2 1.2 0 0 0 .6-.4l.4-.4.2-.4.2-.2.6-.1.3-.2c.2-.1.4-.3.5-.6h.2v.2l.5.5.2.4.1.2v.3c-.3.1-.5.3-.6.5l-.4.8-.1.1m28.7-4l-.2.2-.1.2H53l-.3.4c-.3.4-.4.9-.4 1.3a1.7 1.7 0 0 0-1 1.3c-.4.1-.6.4-.7.6a1.7 1.7 0 0 0-1.1.5h-.1l-.6.6-.3.1c-.4.2-.6.5-.8.9-.1 0-.3 0-.4.2l-.4.2h-1c-.4 0-.8.3-1 .5h-.3-.2l-.3.1h-.3l-.5.2-.5.1h-.6c-.3 0-.6 0-.8.2H41 40l-.2-.1H39l-.8-.5H38l-.4-.2h-.8-.1-.2v-.1l-.2-.1-.8-.4-.2-.1c-.3-.3-.6-.4-1-.4H34L34 53a1.8 1.8 0 0 0-1.5-1l-.4-.5c-.3-.2-.6-.4-1-.4v-.1c0-.2-.2-.3-.3-.4 0-.2-.2-.3-.3-.4a1.8 1.8 0 0 0-.8-1.3c0-.4-.2-.7-.4-1a1.8 1.8 0 0 0-.4-1.4l-.2-.5v-.3l-.3-.6v-.5c0-.3-.1-.5-.3-.7v-.3-.2-.4l-.4-.7c0-.2 0-.4-.2-.5a1.8 1.8 0 0 0-.3-1.1v-.2-1-.1c.2-.3.2-.6.1-.9a1.7 1.7 0 0 0 .2-.6 1.7 1.7 0 0 0 .4-1.5v-.2a1.7 1.7 0 0 0 .6-1.1l.1-.7c.2-.1.2-.2.3-.4l.3-.3a1.7 1.7 0 0 0 1-1.9l.2-.2.1-.2h.1l.2-.1.3-.1.7-.7h.1l.4-.4h.1l.5-.2.6-.5.3-.1c.2 0 .3-.2.4-.3.4-.2.7-.5.8-.8v-.1l.4-.2h2.1l.5-.2s0 .2-.2.3c-.2.3-.3.6-.3 1l-.3.7a1.7 1.7 0 0 0-1 1.2l-.3.6a1.7 1.7 0 0 0-.5 1l-.2.2c-.3.5-.4 1-.3 1.5v.8l-.1.4v.1a1.7 1.7 0 0 0 0 1.2v.8a1.7 1.7 0 0 0 .1 1.9v.5a1.7 1.7 0 0 0 0 1.3v.1a1.7 1.7 0 0 0-.4 2v.1l-.1.2v.1l-.3.3c-.4.4-.6.8-.7 1.2-.3 0-.7.1-1 .4-.7.6-.8 1.7-.2 2.5.6.6 1.5.8 2.2.4.3 0 .7-.1 1-.4l.4-.3.5-.6c.2-.2.4-.5.4-.9l.3-.3.3-.3.2-.5a1.7 1.7 0 0 0 .2-.6l.2-.3.2-.5v-1h.1l.1-.7a1.7 1.7 0 0 0 0-1.9V40l.1-.2.2-.6c0-.3 0-.7-.2-1v-.7l.1-.5c0-.4 0-.8-.2-1v-.3-.3-.2a1.7 1.7 0 0 0 .1-.7c.2-.3.3-.5.3-.8l.2-.2c.2-.2.3-.5.3-.7a1.7 1.7 0 0 0 1-1c.2-.3.3-.5.3-.8l.3-.2v-.2c.4-.2.6-.4.7-.6h.1l.5-.2c.2 0 .4-.1.5-.3.3 0 .6-.3.8-.5h.7c.4-.2.7-.5 1-1h1l.1.2.4.4c.2.2.5.3.8.3l.2.2c0 .2.2.4.4.5l.4.4v.1h-.2l-.7.6h-.2c-.2 0-.3.2-.5.3h-.6c-.5.2-.9.6-1 1l-.1.1a1.7 1.7 0 0 0-.8 1 1.7 1.7 0 0 0-.7.8c-.2.3-.3.7-.3 1a1.7 1.7 0 0 0-.8 1.4l-.1.1-.2.4H42c-.2.3-.3.5-.3.8a1.7 1.7 0 0 0-.2 1.5 1.7 1.7 0 0 0 0 1l-.1.5c0 .3 0 .7.2 1v1.2l-.1.5c0 .4 0 .8.2 1.1a1.7 1.7 0 0 0 0 1.5c-.3.2-.4.5-.5.7l-.1.6-.1.3v.2l-.1.2-.1.2c-.3.2-.4.5-.5.7l-.3.2c-.2 0-.3.2-.4.3l-.5.6c-.6.6-.6 1.6 0 2.3.6.8 1.7.9 2.5.2l.4-.5.2-.1.7-.4.5-.7.1-.1c.5-.4.7-1 .7-1.4V49v-.2l.1-.3.1-.2V48l.4-.4a1.7 1.7 0 0 0 .5-1.4c.1-.4 0-.8-.1-1.2v-.1-.4-.2l-.1-.9v-.2-.2-.3c.1-.3 0-.6 0-.8a1.7 1.7 0 0 0 0-.7 1.7 1.7 0 0 0 0-1.9v-.6a1.7 1.7 0 0 0 .9-1.3 1.7 1.7 0 0 0 .5-1.3v-.4a1.7 1.7 0 0 0 1-1l.2-.4h.2l.4-.2a1.7 1.7 0 0 0 1.5-.7l1-.7.5-.1.2-.1v.2l.5.7v.3c.1.4.4.7.7 1a1.8 1.8 0 0 0 1 1.6v1.5c.1.4.3.7.6 1v.3c0 .3.2.6.3.8l.2.5V43l-.1.2-.3.5v1.5l-.4.6v.6s-.2 0-.2.2l-.4.8-.1.1m10.2-33.7h-.9l-.9.3-.5-.2h-1c-.4 0-.7.2-1 .5l-.4.4c-.3.1-.4.3-.6.5l-.3.1c-.4.2-.6.6-.7 1-.3.3-.3.6-.3 1l-.1.2a1.7 1.7 0 0 0-1 1.8l-.3.4-.2.5-.2.5-.5.5c-.2.3-.2.7-.2 1.1l-.3.4c-.2.3-.2.6-.2.9-.1.2-.2.5-.1.7v.2a1.7 1.7 0 0 0-.5.6v.2l-.5.4-.2.5-.2.9-.2.2-.2.5-.4-.4-.4-.4c-.4-.3-.8-.4-1.3-.4a1.8 1.8 0 0 0-1.6-1.2l-.3-.3h-.2c-.1-.3-.4-.6-.6-.7-.5-.2-1-.3-1.5 0v-.1h-1.4a1.8 1.8 0 0 0-1.8-.4l-.6-.4c-.4 0-.9 0-1.3.2h-.5c-.1 0-.3-.1-.4 0l-.7.1-1-.2c-.5 0-1 .3-1.2.7h-.3H36l-.5.2h-.6c-.2 0-.4 0-.6.2h-.4l-.7.3-.6.5-.4.5a1.7 1.7 0 0 0-1.5 1c-.2 0-.3.2-.4.3h-.1l-.5.2c-.3.2-.6.4-.7.7a1.7 1.7 0 0 0-1.5 1.3l-.3.3c-.2.2-.3.5-.3.7l-.1.2a1.7 1.7 0 0 0-.9 1.4v.2c-.2 0-.3.2-.4.3-.3.3-.4.7-.3 1.1l-.4.4c-.3.3-.4.8-.4 1.3v.7a1.7 1.7 0 0 0-.4 1 1.7 1.7 0 0 0-.3 1.6h-.3-.1c-.2-.2-.5-.3-.7-.3l-.3-.3-.4-.4-.6-.2c-.3-.2-.8-.3-1.2-.3h-.4l-.5-.4-.5-.2a1.8 1.8 0 0 0-1-.7l-.4-.2c-.2-.2-.5-.3-.8-.3l-.4-.1-.3-.2-.3-.1-.6-.6-.8-.3-.2-.2-.8-.2a1.8 1.8 0 0 0-1.3-.5 1.8 1.8 0 0 0-1.1-.3l-1 .1h-.2l-1 .1-.8.4c-.3.2-.4.5-.5.9H7l-.4.3c-.4.3-.5.7-.6 1v.1c-.2.4-.2.8-.1 1.2a1.7 1.7 0 0 0 .3 1.7l.1.3c0 .2.2.4.3.5a1.8 1.8 0 0 0 1 1.6v.2l.7.6a1.8 1.8 0 0 0 .8 1.2l.3.6v.8l.1.4v.7l-.2.7A1.7 1.7 0 0 0 9 48a1.7 1.7 0 0 0 0 2 1.8 1.8 0 0 0 .8 1.5v.3c0 .3.1.5.3.8.2.4.4.6.7.8l.3.5.3.3a1.8 1.8 0 0 0 1 1l.1.1.2.4.2.7a1.7 1.7 0 0 0 .3 1.7l-.3.6a1.7 1.7 0 0 0-.2 1.6l.1.7v1a1.7 1.7 0 0 0 .4 1.4A1.8 1.8 0 0 0 14 65l.8.5a1.8 1.8 0 0 0 1 .6h.1c.4.2.7.2 1 .2l1-.1a1.7 1.7 0 0 0 1.6-.6h.3c.6-.3 1-.9 1-1.5.2 0 .4-.2.6-.4l.3-.7a1.7 1.7 0 0 0 .6-.9l.2-.2.5-.4.4-1 .4-.4.4-.8.1-.4a1.7 1.7 0 0 0 .7-1.1v-.1c.2-.3.4-.5.4-.8l.2-.2.2-.4h.1l.2-.3a1.7 1.7 0 0 0 1-1.4l.1-.1c.2-.2.3-.4.3-.7l.3-.2.2-.4.2-.1v.1l.2.2.1.3c.2.4.5.7.9.8l.7.2v.1l.3.2.2.1c.2.2.5.4.8.4l.5.7c.3.2.7.4 1.1.4h.4l.1.1.7.4a1.8 1.8 0 0 0 1.4.6h.2l.2.1c.3.1.5.1.8 0 .2.3.5.5.8.6h.2a1.8 1.8 0 0 0 1 .2l.4.2H41c.3.2.6.3 1 .3s1-.1 1.3-.4c.3 0 .6-.2.9-.4h.2l.2-.1a1.8 1.8 0 0 0 .6 0c.2 0 .5.1.8 0 .5 0 1-.2 1.2-.6a1.8 1.8 0 0 0 .6 0l.6-.1.7-.4.6-.2.5-.5.4-.4.3-.2c.4-.1.6-.4.8-.8l.6-.1.4-.4c.3-.1.5-.4.7-.6l.1-.1.3-.2a1.7 1.7 0 0 0 1-1l.3-.4.2-.4.2-.3.2-.2c.3-.4.4-.8.4-1.3l.1-.2a1.7 1.7 0 0 0 .9-1.2l.1-.2.4-.7.2-.8a1.7 1.7 0 0 0 .3-1.3 1.7 1.7 0 0 0 .1-1.3v-.1l.1-.4v-.2l.1-.5v-.5a1.7 1.7 0 0 0 .4-1.6v-.3l.7.2.2.2c.4.2.9.3 1.3.2a1.8 1.8 0 0 0 .7.5l.5.5.6.2c.2.2.5.2.8.2l.2.2.3.1.2.2c.3.2.7.2 1 .2l.3.2a1.8 1.8 0 0 0 1.2.9l.3.1h.1c.3.2.5.3.8.3l.8.2h.3c.4.3.7.4 1.1.5.4 0 .7-.1 1-.3.5 0 .9-.1 1.2-.3.4-.2.7-.6.9-1l.2-.3.3-.6.4-.3a1.7 1.7 0 0 0 .6-2.2V40c0-.2 0-.3-.2-.5 0-.4-.1-.6-.3-.9-.2-.4-.5-.8-.9-1a1.8 1.8 0 0 0-1-1.3 1.8 1.8 0 0 0-.8-.8l-.2-.2-.1-.2a1.8 1.8 0 0 0-.4-1.4 1.8 1.8 0 0 0-.3-.9c.3-.2.4-.6.4-.9l.4-.7.3-.3c.4-.6.4-1.4 0-2V29v-.5a1.7 1.7 0 0 0-.8-2v-.1a1.8 1.8 0 0 0-1.3-2c-.5-.3-.9-.4-1.3-.3l-.4-.3-.4-.1a1.8 1.8 0 0 0-.9-.7 1.8 1.8 0 0 0-.2-.9v-.2l-.2-.5a1.7 1.7 0 0 0 .2-1.8v-.1c.3-.3.5-.8.5-1.3s-.2-.9-.5-1.2l-.3-.4-.2-.3V16l-.2-.2-.1-.3c-.2-.4-.5-.6-.8-.8-.2-.4-.6-.7-1.1-.9" fill="#640A40" fill-rule="evenodd"/></g></g><g id="s20-404" transform="translate(20, 404.0)"><g transform="translate(-0.0, -0.0)"><title>trickIcon@1.5x</title><path d="M49.3 46.6c-.2 0-.4 0-.6.2a1.7 1.7 0 0 0-1.4.8l-.1.2c-.2 0-.3.2-.4.3h-.1a1.7 1.7 0 0 0-1 .7 1.8 1.8 0 0 0-1.1.2 1.7 1.7 0 0 0-1 0 1.7 1.7 0 0 0-1.5.3l-.9.2h-.7-.1l-.4.1-.7-.1-.6.1-.8-.2-.6-.6c-.4-.2-.8-.3-1.3-.2l-.4-.1c-.2-.4-.4-.7-.7-.9-.4-.2-.8-.2-1.2-.2a1.7 1.7 0 0 0-.7-.5l-.5-.4-.5-.6-.2-.4c0-.2-.2-.3-.3-.4l-.2-.6c-.2-.3-.5-.6-.8-.7 0-.2 0-.4-.2-.6-.2-.4-.5-.6-.8-.8 0-.2 0-.4-.2-.5v-.6c0-.3 0-.6-.2-.8v-.3-.7a1.8 1.8 0 0 0-.2-1c0-.4-.2-.7-.3-1v-.4a1.8 1.8 0 0 0 0-1v-.3c0-.3 0-.7-.2-1l.2-.5.3-.3.5-.6c.3-.5.3-1.1 0-1.6v-.1h.1a1.8 1.8 0 0 0 .5-.8 1.8 1.8 0 0 0 .8-1.2l.2-.5.5-.6a1.7 1.7 0 0 0 1.1-1l.4-.1.3-.2a1.7 1.7 0 0 0 .5-.3h.2c.4-.3.6-.6.7-1l.6-.1.4-.3.6-.6a1.7 1.7 0 0 0 1-.1c.3 0 .6-.1.8-.3h.1c.4 0 .7 0 1-.3h.4a1.7 1.7 0 0 0 1.5.1h.4c.3 0 .6 0 .8-.2h.6c.3.2.6.2.8.1a1.7 1.7 0 0 0 .7.5l.2.1h.1l.4.4c.3.2.7.2 1.1.2l.4.3c.2.2.5.2.7.2l.3.3.5.3c.2.2.4.2.7.3l.5.4c0 .3.1.5.3.7.2.5.7.8 1.1.9 0 .3.1.6.3.8.1.4.4.6.8.8a1.8 1.8 0 0 0 .7 1.5l.3.2v1.4l.2.6c0 .2 0 .5.2.7V35.8l-.1.5v.6l.2.8.1.5.1.3-.2.8c-.1.2-.2.5-.1.7v.2l-.2.2a1.8 1.8 0 0 0-.9 1.3l-.1.6-.2.3-.2.4c-.3.5-.4 1-.3 1.5v.2h-.1a1.7 1.7 0 0 0-1.4 1l-.3.6-.2.3m27.2-4.8c-.2-.3-.5-.5-.9-.6-.2-.3-.6-.5-1-.6 0-.2-.2-.4-.3-.5l-.5-.4-.2-.4c-.3-.3-.6-.5-1-.6a1.8 1.8 0 0 0-.8-1l-.2-.3-.2-.2-.2-.3-.3-.3c-.4-.4-.8-.6-1.2-.7a1.8 1.8 0 0 0-1-1.4l-.2-.1v-.1c-.3-.3-.7-.5-1-.6-.2-.3-.5-.5-.8-.6V33l-.4-.3c0-.2-.1-.5-.3-.7l-.6-.4c-.7-.6-1.7-.7-2.4 0a1.7 1.7 0 0 0-1.4.5l-.4.2a1.7 1.7 0 0 0-1 .5l-.3.1h-.1l-.9.7c-.2 0-.3.2-.5.3l-.6.3-.4.1-.7.5v-.2l-.2-.7-.1-.5-.1-.4v-.4-.2-.1-.4c0-.3 0-.6-.2-.8V31l.6-.4.6-.5.2-.1.7-.6v-.1l.7-.2c.4-.2.7-.6.9-1a1.7 1.7 0 0 0 1.7-1 1.7 1.7 0 0 0 1.2-.5l.3-.3.2.1.4.4c.3.3.8.4 1.3.3a1.8 1.8 0 0 0 1 1l.5.3c.4.3 1 .4 1.4.3l.1.2.5.5.6.3.3.3.4.2v.1c.3.2.6.3 1 .3v.2l.6.2c0 .2.2.3.4.4l.7.4.4.1.3.3c.8.6 1.9.4 2.5-.4.5-.7.4-1.7-.3-2.4 0-.2-.2-.4-.4-.5-.3-.3-.7-.4-1-.4h-.2l-.3-.4-.6-.2c0-.2-.2-.3-.3-.4-.3-.2-.7-.4-1-.4a1.7 1.7 0 0 0-1-.7L70 26l-.2-.2-.2-.2-.5-.2c-.4-.3-.8-.4-1.3-.4a1.8 1.8 0 0 0-1.3-1.1l-.1-.1-.1-.1c-.4-.3-.7-.4-1-.4h-.1l-.9-.3-.1-.1-.8-.4a1.7 1.7 0 0 0-2.3.4l-.5.5a1.7 1.7 0 0 0-1.5.7l-.3.3a1.7 1.7 0 0 0-1 .5l-.2.2h-.1c-.4.2-.6.5-.8.8l-.4.3-.6.5-.4.1-.7.7H54l-.2-.1a1.8 1.8 0 0 0-.5-1.1c-.2-.4-.4-.6-.7-.7v-.2l-.2-.2-.1-.3-.6-.6c0-.2-.2-.4-.4-.6-.3-.3-.6-.4-1-.5-.3-.2-.6-.2-1-.2l-.4-.4-.6-.2-.4-.3-.6-.2c-.4-.2-.7-.3-1.1-.2l-.2-.1a1.7 1.7 0 0 0-1.2-.8c-.4-.2-.9-.2-1.3 0a1.7 1.7 0 0 0-1.9-.2 1.7 1.7 0 0 0-1.7.1h-.2-.1a1.7 1.7 0 0 0-.8 0h-.2c-.2 0-.5 0-.7.2a1.7 1.7 0 0 0-1.5.4l-.5-.1c-.3 0-.6.1-.8.3a1.7 1.7 0 0 0-1.8 1.2 1.7 1.7 0 0 0-.7.3l-.2.1c-.4.3-.6.6-.8 1H31h-.2c0-.2-.2-.4-.4-.5l-.6-.5-.2-.2c-.2-.3-.4-.4-.7-.5l-.1-.1-.3-.6c-.3-.4-.7-.6-1.2-.7l-.3-1-.8-.5a1.8 1.8 0 0 0-.8-1.1l-.7-.5-.3-.7c-.3-.3-.6-.5-1-.6a1.7 1.7 0 0 0-1.7-.3 1.7 1.7 0 0 0-1.4.4A1.7 1.7 0 0 0 19 18a1.7 1.7 0 0 0-1.3.3h-.1l-.5.3c-.5.2-.8.6-1 1h-.2a1.7 1.7 0 0 0-1.2.6h-.5l-.4.3c-.4.1-.7.3-.8.6h-.2l-.5.3-.5.1-.7.5-.4.3a1.7 1.7 0 0 0-1.2.7c-.2 0-.4 0-.6.2h-.2a1.7 1.7 0 0 0-.8.4l-.4.2h-.1c-.7.3-1 .8-1.1 1.5a1.7 1.7 0 1 0 3.1 1.6l.2-.2h.1l1-.1.3-.1a1.8 1.8 0 0 0 1.1-.8c.4-.2.7-.4 1-.8l.5-.1.5-.4a1.7 1.7 0 0 0 1.4-.8 1.7 1.7 0 0 0 1.1-.5h.5l.2-.2h.3l.4-.3c.5-.2.8-.5 1-1a1.7 1.7 0 0 0 1.7-.4l.1-.2h.2l.8-.6c.1.2.3.3.6.4l.4.4c0 .3.2.6.4.8l.6.5.3.3.3.4.5.5.2.2c.3.4.6.6 1 .7l.3.3v.1l.6.5.2.3c.2.3.4.5.7.6l.1.3-.2.4a1.8 1.8 0 0 0-.4 1.3l-.2.2-.2-.1c-.1-.2-.3-.2-.5-.3-.2-.2-.5-.3-.7-.3l-.2-.2-.9-.3-.5-.6c-.4-.3-.9-.4-1.3-.3-.1-.4-.3-.6-.6-.8-.4-.4-1-.5-1.5-.3-.4-.2-.6-.2-1-.2a1.7 1.7 0 0 0-1.9.7l-.5.6a1.7 1.7 0 0 0-1.4 1l-.1.1-.5.5c-.1 0-.3 0-.4.2-.4.2-.7.6-.8 1.1a1.7 1.7 0 0 0-1.2.5l-.2.1-.4.4c-.4.3-.7.7-.8 1.2h-.2a1.7 1.7 0 0 0-1 .8c-.2 0-.3 0-.5.2l-.3.2h-.1l-.7.8h-.1l-.4.5a1.7 1.7 0 0 0-1.1.8l-.3.3-.4.2c-.5.3-.8.9-.8 1.4-.3.6-.2 1.2 0 1.7a1.7 1.7 0 0 0 3.2-.2c.4-.3.6-.6.7-1h.1l.5-.2.4-.4.5-.2c.3-.2.5-.5.7-.9a1.7 1.7 0 0 0 1-.7c.2 0 .3 0 .4-.2l.2-.1.3-.2.4-.3c.4-.3.7-.7.8-1.1a1.7 1.7 0 0 0 1.5-.8l.2-.2h.1c.3-.2.6-.6.7-.9.3-.2.5-.4.6-.7h.2l.3-.3a1.7 1.7 0 0 0 1.3-.9l.3-.3a1.8 1.8 0 0 0 1 .6l.2.1v.1l1 .4h.1l.4.2.7.4.3.3.9.3c0 .3.2.5.4.7l.5.2a1.7 1.7 0 0 0-.4 1 1.8 1.8 0 0 0-.5 1c-.2.5-.2 1 0 1.5 0 .3.2.5.3.8v.6h-.8l-.3-.2h-.8-.2a1.7 1.7 0 0 0-1.9-.3l-.8-.6c-.5-.1-1 0-1.5.2h-.3a1.7 1.7 0 0 0-2.3.9l-.4.7a1.8 1.8 0 0 0-1.2 1.3h-.1l-.4.6a1.7 1.7 0 0 0-1 1.5 1.7 1.7 0 0 0-1 .8l-.1.1-.4.5c-.3.3-.5.8-.5 1.3l-.2.1a1.8 1.8 0 0 0-1 .9l-.3.3-.3.3H9c-.3.3-.4.6-.5 1h-.1L8 47l-.4.3c-.7.7-.8 1.8-.1 2.5.6.7 1.7.8 2.4.1a1.8 1.8 0 0 0 1-.8l.3-.3c.3-.3.5-.6.6-1a1.8 1.8 0 0 0 .9-.9l.3-.2.2-.2.2-.2.3-.4c.4-.4.6-.8.6-1.3a1.7 1.7 0 0 0 1.4-1l.1-.2.1-.1c.3-.3.5-.6.5-1l.5-.8.2-.1.2-.3a1.7 1.7 0 0 0 1.1-1.1l.2-.3h.4l.4.3h.7l.3.1c.4.2.8.2 1.1 0v.1l.6.1.7.1.4.2h.9a1.7 1.7 0 0 0 1.1.6l.1.4a1.8 1.8 0 0 0 0 1.2c.1.5.4 1 .7 1.2l.1.3c-.2 0-.4 0-.5.2-.3 0-.6.2-.8.4h-.2c-.3 0-.6.2-.8.4h-.1l-.7.1c-.5.1-.9.4-1.1.8a1.7 1.7 0 0 0-2.1.8c-.2 0-.3.2-.4.3a1.8 1.8 0 0 0-1.4 1.6c-.1.3-.2.6-.1.9a1.8 1.8 0 0 0-.6 1.6c-.2.3-.2.5-.2.8a1.8 1.8 0 0 0-.3 1.7 1.8 1.8 0 0 0-.7 1.2l-.1.1-.2.6V57.3a1.8 1.8 0 0 0-.6 1.2l-.3.4v.4l-.1.1c-.2.3-.2.6-.2 1v.1c-.5.9 0 2 .8 2.4 1 .4 2 0 2.3-1 .2-.1.3-.3.3-.4.2-.4.2-.8.2-1.1a1.8 1.8 0 0 0 .5-1.2l.2-.4v-.3l.2-.2.2-.5c.2-.5.2-1 0-1.4a1.8 1.8 0 0 0 .9-1.5v-.2-.1c.2-.4.3-.8.2-1.2.1-.3.2-.6.1-.9l.1-.2.2-.3a1.8 1.8 0 0 0 .6-1.4V50h.1l.4-.2a1.7 1.7 0 0 0 1-.3l.4-.2c.4 0 .7-.2 1-.5l.5-.2c.3 0 .5-.2.7-.3a1.7 1.7 0 0 0 1.2-.5 1.7 1.7 0 0 0 1.5-.3h.5l.1.4.7.7v.1c.2.3.5.6.8.7v.1c.2.4.6.7 1 .8l.5.4c.3.2.7.3 1 .3h.1l.4.3.5.4.8.2.3.1.7.2a1.7 1.7 0 0 0 .6.3l.1.2.7.2.3.2.2.1.3.2c.7.4 1.5.3 2-.2h.8l.8.1c.4 0 .8-.1 1.1-.4h1.1c.3 0 .6 0 .9-.2H45.2a1.7 1.7 0 0 0 1.8-.4 1.7 1.7 0 0 0 1.5-1l.3-.4h.1l.4-.4c.2 0 .4-.2.5-.4l.5.2a1.7 1.7 0 0 0 .9.6l.3.3c.1.2.3.3.5.3l.7.4.2.2.8.4h.1a1.7 1.7 0 0 0 1.4 1 1.8 1.8 0 0 0-.2 1.3c0 .3 0 .6.2.8a1.8 1.8 0 0 0-.1 1.7v.2.7l-.1.4c-.1.5 0 1 .3 1.3a1.8 1.8 0 0 0-.4 1.3v.8c0 .5.1 1 .4 1.3v.2a1.8 1.8 0 0 0-.2 1.3l-.1.5V65.9c-.1.4 0 .8.3 1.2.1.7.7 1.2 1.4 1.3 1 .1 1.9-.6 2-1.5 0-.4 0-.8-.2-1.1a1.8 1.8 0 0 0 .1-1.3l.1-.4v-.3l.1-.3V63c0-.5 0-1-.3-1.3a1.8 1.8 0 0 0 .3-1.7v-.3-.1c.1-.4 0-.8-.1-1.1 0-.3 0-.7-.2-1v-.1-.4a1.8 1.8 0 0 0 .3-1.5l-.1-.6.3-.9v-.8c0-.3-.2-.6-.3-.8a1.8 1.8 0 0 0-1.2-1.9l-.3-.1v-.1c-.3-.3-.7-.4-1-.4-.2-.2-.3-.3-.5-.3l-.6-.4-.3-.3c-.2-.2-.5-.4-.8-.4a1.8 1.8 0 0 0-.8-.9l.4-.3a1.8 1.8 0 0 0 1-1.4v-.3c.3-.4.3-.8.3-1.2h.3a1.7 1.7 0 0 0 1 0h1l.8-.1h.3l.9-.1h.1a1.7 1.7 0 0 0 2-.3c.2.2.5.4.8.4 0 .4.2.7.4 1v.2l.1.6v.5c0 .5.2 1 .6 1.2a1.8 1.8 0 0 0-.1 1.4v.7c.1.5.4 1 .7 1.2v.3a1.8 1.8 0 0 0 0 1.3v.4l.1.5c0 .4.2.7.3 1v.2c0 .2 0 .3.2.5l-.1.6c0 .3 0 .5.2.7l.2.5a1.8 1.8 0 0 0 .3 1.4v1.2c0 1 .8 1.8 1.8 1.7 1 0 1.7-1 1.7-1.9v-.1l.2-1V58v-.3c0-.4-.2-.8-.4-1v-.1c0-.4-.2-.7-.4-1v-.1-.5c0-.2 0-.4-.2-.6V54c0-.4 0-.8-.3-1a1.8 1.8 0 0 0-.1-1.4v-.4-.3-.3l-.1-.4V50c0-.5-.3-.9-.6-1.2a1.8 1.8 0 0 0 0-1.7v-.3-.1c0-.4-.2-.8-.4-1 0-.4-.1-.7-.3-1v-.1-.4-.8c0-.3 0-.5-.2-.7 0-.4-.2-.7-.4-1l-.3-.5c-.2-.6-.8-1-1.4-1h-.8l-.4.1a1.7 1.7 0 0 0-1.2 0H61c-.5 0-.8 0-1.1.2h-.6l-.7.1H57l-.5-.2v-.3c.2 0 .3-.2.4-.4l.2-.5.1-.8a1.5 1.5 0 0 0 .9-.4c.2 0 .5-.2.6-.4h.3l.7-.6h.2a1.7 1.7 0 0 0 1.6-1 1.7 1.7 0 0 0 1.8-.7h.4l.4.2v.1l.6.4c0 .2.2.3.3.4.3.4.7.6 1.2.6a1.8 1.8 0 0 0 .7 1.2v.1l.5.4c.3.4.8.6 1.2.6l.2.2a1.8 1.8 0 0 0 .8 1l.2.4.4.3v.1c.2.3.5.4.8.5l.1.2.4.3.3.5.6.5.5.3c0 .1 0 .2.2.3.4.5 1 .7 1.5.6.5.2 1.2 0 1.6-.3.8-.7.9-1.8.2-2.5" fill="#640A40" fill-rule="evenodd"/></g></g><g id="s20-504" transform="translate(20, 504.0)"><g transform="translate(-0.0, -0.0)"><title>yellowBtn@1.5x</title><path d="M273.5 48v-1.5a8 8 0 0 0-.9-3.3c-.2-.8-.5-1.6-.9-2.2l-.1-.5-.1-1v-.2a8.5 8.5 0 0 0-.3-5.3c0-.9 0-1.7-.2-2.5-.2-1-.5-1.8-1-2.5l-.1-.4-.2-.5a8 8 0 0 0-1-2.5l-.2-.7-1.1-1.9a8 8 0 0 0-.4-1.6c-.5-1.1-1.1-2-1.8-2.6a6 6 0 0 0-2.5-3.5l-.6-.7-.4-.5c-.2-.7-.6-1.4-1.1-2a4.5 4.5 0 0 0-2.7-1.6c-.3-.7-.7-1.4-1.2-2a4.7 4.7 0 0 0-1.9-1.3l-.6-1a4.3 4.3 0 0 0-3.4-1.5c-.3-.4-.8-.7-1.2-.9-.9-.3-1.8-.4-2.6-.1a5 5 0 0 0-1.9-1.5 3.9 3.9 0 0 0-3.8.3h-.4c-.2-.2-.3-.3-.5-.3-.6-.3-1.2-.4-1.8-.4-.5-.4-1.1-.8-1.8-1-.5-.4-1.1-.6-1.8-.8a4 4 0 0 0-3.5 1.2 3.7 3.7 0 0 0-2.5-.4h-.2c-.6-.1-1.3 0-1.8.1-.6 0-1.1 0-1.7.3H223.5a4 4 0 0 0-.9-.2c-.5-.3-1-.6-1.6-.7-.6 0-1.3 0-1.9.2-.7 0-1.4.2-2 .5a4 4 0 0 0-.5-.2c-.6-.3-1.1-.6-1.7-.7-.7 0-1.3 0-1.9.2a4 4 0 0 0-2.6.7c-.5-.4-1.1-.6-1.7-.7-1.5-.3-2.9.3-3.9 1.5a4 4 0 0 0-.7-.2 4.1 4.1 0 0 0-2.3-.7 3.8 3.8 0 0 0-3.3.1 4 4 0 0 0-1.7.6c-.6-.5-1.3-.8-2-1-1-.1-1.9.1-2.7.6-.6-.5-1.3-.9-2-1-.7-.1-1.4 0-2 .3h-.4a4 4 0 0 0-.7-.2c-1.4-.2-2.7.3-3.7 1.3a4 4 0 0 0-2.3-.3H180.1l-.9-.3c-.7-.1-1.4 0-2 .2a3.8 3.8 0 0 0-2.8-.2 3.8 3.8 0 0 0-3.8 0l-.6-.2c-.5-.3-1-.5-1.6-.6-1-.2-2 0-2.9.7a4 4 0 0 0-1.2.4l-.5-.1c-.7-.1-1.3 0-1.9.1a4 4 0 0 0-1-.4c-.5-.4-1.1-.6-1.8-.7-1.4-.3-2.8.4-3.9 1.6h-.6-.1c-.7-.1-1.4 0-2 .2a4 4 0 0 0-1-.3c-.5-.3-1-.6-1.7-.7a4 4 0 0 0-3 .8h-.2a3.8 3.8 0 0 0-3.5-.3l-.3.1c-.7-.5-1.4-1-2.3-1-.5-.2-1-.1-1.4 0h-.1c-1-.2-1.8 0-2.6.5a3.8 3.8 0 0 0-2.8.2l-.4-.1c-.6-.5-1.3-.8-2-.9-.7 0-1.4 0-2 .3a4 4 0 0 0-4.1.6 4 4 0 0 0-1.6-.7l-1.5.1a4 4 0 0 0-3 .8H117.6l-.3-.1c-.6-.1-1.2 0-1.7.1h-.9l-.5-.1c-.8-.1-1.5 0-2.2.3a4.4 4.4 0 0 0-2.4-1.3c-.9-.2-1.8 0-2.5.4a3.8 3.8 0 0 0-2.4 0 4 4 0 0 0-1.3-.4 4 4 0 0 0-3 .8h-.4-.3a4 4 0 0 0-1-.2 3.7 3.7 0 0 0-3.3-.4l-1.5.1a3.8 3.8 0 0 0-2.4-.5H91c-1.4-.3-2.7.3-3.7 1.3-.7 0-1.3.2-2 .6h-.6c-.8-1-1.8-1.7-3-2-1 0-1.9.2-2.7.7h-.4c-.7-.1-1.5 0-2.1.3a3.8 3.8 0 0 0-3.4.2 3.8 3.8 0 0 0-2.4 0 4 4 0 0 0-2.1-.6 3.8 3.8 0 0 0-2.9 0c-.7 0-1.4.2-2 .5a3.7 3.7 0 0 0-1.8-.1h-.3c-.7-.2-1.3 0-1.9.1H59c-.6-.5-1.3-.8-2-1a4 4 0 0 0-3.5 1.2l-1.4.1c-.5 0-1 0-1.5.2l-.8-.4c-.6-.5-1.4-.9-2.2-1a4 4 0 0 0-2.9.7c-.5-.3-1-.6-1.7-.7h-1.4-.1a4 4 0 0 0-3.2.9 3.9 3.9 0 0 0-4.6.3 3.8 3.8 0 0 0-2.3.4 4 4 0 0 0-1 .2 3.7 3.7 0 0 0-1.8.4h-.4c-1 0-2 .7-2.8 1.5a5 5 0 0 0-1.6 1.4c-1-.2-2.1 0-3.1.6a6 6 0 0 0-2.2 2.9c-.7.4-1.1 1-1.5 1.5-.5.2-.9.3-1.3.6l-1 1a4 4 0 0 0-1.8.7c-1.5 1-2.5 3-2.7 5.1-.5.4-1 .9-1.4 1.5a7 7 0 0 0-.7 1.4l-.2.3c-.6.9-1 2-1.1 3-.7.4-1.3 1-1.8 1.8-.6.8-.9 1.7-1 2.7-.5.5-1 1.1-1.2 1.8a8.4 8.4 0 0 0-.6 4.2 7.9 7.9 0 0 0-.6 4l-.4 1.1a8.6 8.6 0 0 0 0 3.9c-.4.6-.7 1.3-1 2.1a8.6 8.6 0 0 0 0 3.8c-.1 1.4.1 2.7.7 3.9 0 .5.2 1 .4 1.4a8.7 8.7 0 0 0 0 2.3V58c.1 1.3.5 2.4 1 3.4a9 9 0 0 0 .2 1.7 8.8 8.8 0 0 0 0 1.5 8.7 8.7 0 0 0 .3 3.2c0 .4 0 1 .2 1.4.2.9.5 1.7.9 2.3l.2.7a6 6 0 0 0 2 2.8c.1.8.3 1.5.6 2.3a6.1 6.1 0 0 0 2 2.7l.1.2c0 .8.2 1.5.5 2.2a5.7 5.7 0 0 0 2.7 3.1l.2.2.7 1c.4.6 1 1 1.5 1.2.2.5.5 1 1 1.4.4.5.8 1 1.4 1.2.6.7 1.3 1.1 2.1 1.3l.4.6c.8.9 1.6 1.4 2.5 1.5l.9.5c.5 1 1.3 1.8 2.3 2.2 1.1.5 2.3.4 3.3 0 .8.3 1.7.3 2.6 0 .5.7 1 1.2 1.8 1.5 1 .4 2 .4 3 0h.4c.6.5 1.3.9 2 1 .8.1 1.6 0 2.3-.3l.7-.1c.5.3 1 .6 1.7.7a4 4 0 0 0 3.2-1h2.4a4.3 4.3 0 0 0 2.6 1c.3.2.7.4 1 .4 1.1.2 2.1 0 3-.7h.2c.6.2 1.2 0 1.8-.1.8 0 1.5-.1 2.2-.5a3.8 3.8 0 0 0 1.2.3 4 4 0 0 0 1.5.3l1 .3c.8.1 1.5 0 2.2-.3l1 .3h2.6l.4.1H70.7a4 4 0 0 0 3-.8c.5.3 1 .5 1.6.6.9.1 1.8 0 2.6-.5.3 0 .7-.1 1-.3a4 4 0 0 0 2.2.3l.2.1c.5.4 1.1.6 1.7.7.8.1 1.6 0 2.3-.3l.8.2a4 4 0 0 0 3.4-1l1.3.5h1.5c.9 0 1.7 0 2.4-.4.6.6 1.4 1 2.3 1.2h1.5a4 4 0 0 0 3.4-1h.5l.8.2c.9.1 1.7 0 2.5-.5.6.5 1.3.8 2.1 1 .8.1 1.6 0 2.4-.4l.7.2a4 4 0 0 0 3.2-.9h.2l1.2.4c1 .1 1.9 0 2.7-.6.6.6 1.2.9 2 1 1 .2 2 0 2.9-.7h1.5c.6.4 1.2.7 1.8.8 1 .1 1.9-.1 2.7-.6a4 4 0 0 0 1-.3c.8.7 1.6 1.2 2.5 1.4 1 .1 2-.2 3-.8a4 4 0 0 0 3.4-1h.9c.5.5 1.2.8 2 1 1 .1 2-.1 2.8-.7a4 4 0 0 0 1-.3c.6.7 1.5 1.1 2.4 1.3 1 .2 1.9 0 2.7-.6.5.5 1.2.8 2 .9.6.1 1.3 0 2-.2a4 4 0 0 0 2.3-.7h1.9l1.4.5c1 .2 2 0 2.8-.6.6.4 1.2.7 1.9.8.6.1 1.2 0 1.8-.2.4.3.8.4 1.3.5 1 .1 1.8 0 2.6-.5a4 4 0 0 0 1 .1 4 4 0 0 0 2.1.4h.5a4 4 0 0 0 3.5-1.1c.4.1.7.3 1.1.3h1.5a4.1 4.1 0 0 0 2.3.7l.9.3a4 4 0 0 0 3.4-1.2l1.1-.1h1.5a4.2 4.2 0 0 0 2.3.8l1 .2c.8.2 1.7 0 2.4-.4a3.9 3.9 0 0 0 1.4.2l.8.3a4 4 0 0 0 3.4-1.2l1.2.5c.7 0 1.3 0 2-.2l1.1.4 1.8-.1 1.3.5c1 .1 1.8 0 2.6-.5a4 4 0 0 0 1 .1l1 .4c1 .2 2 0 2.7-.5a4 4 0 0 0 1-.3h.4l.6.1h.2c.4.3.9.5 1.4.5.7.2 1.4 0 2-.2.3.2.7.3 1 .3 1 .2 1.9 0 2.7-.5l.5.2c1 .1 2-.1 2.8-.7h.4l1.4.6c1 .1 2-.1 2.8-.6h.3c.9.2 1.7 0 2.4-.4a4 4 0 0 0 1.2.2 4 4 0 0 0 2.6.7c1.2-.1 2.2-.7 3-1.7h.1a3.8 3.8 0 0 0 3-.4c.4.2 1 .2 1.5.2 1-.1 1.7-.5 2.4-1.1.5 0 1 0 1.5-.3a5 5 0 0 0 2.5-2l1-.5 1.2-1 .1-.2c.7-.4 1.2-1 1.7-1.7l1-.5a6 6 0 0 0 2-2.8l.7-1 .7-.3c1.7-1.1 2.6-3.3 2.7-5.6h.2A5 5 0 0 0 267 78a7.8 7.8 0 0 0 1.2-3.8l.4-.6a5.8 5.8 0 0 0 1.3-2l.4-.6c1-1.6 1.4-3.7 1.1-5.6a7.6 7.6 0 0 0 .3-1.3l.4-1.2.3-2.6.5-1.4c.2-1.1.3-2.2.1-3.3v-1.2a8.5 8.5 0 0 0 .4-6.5" fill="#FFE32C" fill-rule="evenodd"/></g></g><g id="s20-624" transform="translate(20, 624.0)"><g transform="translate(-0.0, -0.0)"><title>email</title><g fill="none" fill-rule="evenodd"><path d="M75.6 80c2.4 0 4.4-2 4.4-4.4V4.4C80 2 78 0 75.6 0H4.4C2 0 0 2 0 4.4v71.2C0 78 2 80 4.4 80h71.2z" fill="#738D9F"/><path d="M59.8 19.8H20a5 5 0 0 0-5 5v29.5a5 5 0 0 0 5 4.9h39.8a5 5 0 0 0 5-5V24.8a5 5 0 0 0-5-5zm0 9.8L39.8 42 20 29.6v-4.9L39.9 37l19.9-12.3v5z" fill="#FFF"/></g></g></g><g id="s20-724" transform="translate(20, 724.0)"><g transform="translate(-0.0, -0.0)"><title>fb</title><g fill="none" fill-rule="evenodd"><path d="M75.6 80c2.4 0 4.4-2 4.4-4.4V4.4C80 2 78 0 75.6 0H4.4C2 0 0 2 0 4.4v71.2C0 78 2 80 4.4 80h71.2z" fill="#3D5A98"/><path d="M55.2 80V49.7h10.3l1.6-12.2H55.2v-7.7c0-3.6 1-6 6-6h6.3V13c-1.1-.2-4.9-.5-9.2-.5-9.2 0-15.5 5.7-15.5 16v9H32.5v12.2h10.3V80h12.4z" fill="#FFF"/></g></g></g><g id="s20-824" transform="translate(20, 824.0)"><g transform="translate(-0.0, -0.0)"><title>replayTexture</title><defs><path d="M0 0h58v39H0z" id="uid_0"/></defs><g fill="none" fill-rule="evenodd"><path d="M75.6 80c2.4 0 4.4-2 4.4-4.4V4.4C80 2 78 0 75.6 0H4.4C2 0 0 2 0 4.4v71.2C0 78 2 80 4.4 80h71.2z" fill="#FFF"/><g transform="translate(11 20)"><mask fill="#fff" id="uid_1"><use xlink:href="#uid_0"/></mask><path d="M58 24.3c0-.6-.2-1.2-.5-1.7v-.1-.6a2.7 2.7 0 0 0 0-2c0-.4 0-.9-.3-1.3v-.3c0-.4 0-.9-.2-1.2l-.3-1-.1-.6c0-.5-.2-1-.4-1.3 0-.3 0-.6-.2-1l-.2-.3a2.7 2.7 0 0 0-1.2-1.8 2.7 2.7 0 0 0-.5-1.5v-.2c-.3-.6-.7-1-1.2-1.3l-.2-.5-.1-1.3c-.2-.4-.5-.8-.9-1.1l-.1-.2c-.5-.6-1.3-1-2.1-1H49l-.9-.4a2.7 2.7 0 0 0-2-1.5 2.7 2.7 0 0 0-2.8-.7H43l-.4-.1-1-.5a2.7 2.7 0 0 0-3 0l-.7-.3h-.1L37 .3h-.3A2.7 2.7 0 0 0 35 .2a2.8 2.8 0 0 0-2.8.6 2.7 2.7 0 0 0-2.4.6h-1.2c-.4 0-.7.2-1 .4H27c-.6.2-1.2.5-1.6.9a2.7 2.7 0 0 0-1.5.2h-.2c-1 .2-1.9 1-2.2 2l-.2.1-.4.7-.5.6v.1c-.3.3-.5.6-.6 1l-.3.2a2.7 2.7 0 0 0-1.7 2.1 2.7 2.7 0 0 0-1.5 1.7c-.1.3-.3.5-.3.8v.1c-.3.3-.4.6-.4 1-.3.3-.6.6-.7 1l-.1.8c-.2.6-.2 1-.1 1.5l-.2.3c-.2.7-.1 1.4.2 2a2.7 2.7 0 0 0-.8 3.4c-.2.4-.4.8-.4 1.3s.2 1 .4 1.4v.4a2.7 2.7 0 0 0 0 1.3l-.4-.6-.8-.6-.4-.7c-.4-.5-1-.8-1.6-.9l-1-.7c0-.4-.2-.9-.6-1.3l-.2-.2-.3-.4c-.4-.5-1-.8-1.5-1l-.7-.5-.4-.7c-.7-.8-1.6-1.1-2.6-1a2.7 2.7 0 0 0-1.8 5.2l.3.5 1 .7.3.4c.4.5 1 .8 1.6.9l.4.7.1.1.4.6c.3.3.6.6 1 .7a2.7 2.7 0 0 0 1.2 1.2l.3.5c.4.4.8.7 1.3.8l.1.2 1.2.8c.1.3.3.7.6 1l.5.5.1.1.6.5v.1c.5.5 1.2.9 1.8 1l1.3.7a2.7 2.7 0 0 0 2.4 1 2.7 2.7 0 0 0 3.5-1.8l.3-.6.3-.4c.2 0 .4-.2.6-.4.4-.2.6-.6.8-1l.3-.2.7-.8a2.7 2.7 0 0 0 1-.7l.3-.2.6-.7.7-.8.6-.8a2.7 2.7 0 0 0 2.3-2.3l.5-.4c.3-.1.4-.4.6-.6a2.7 2.7 0 0 0 1.5-1.2c.6-.6.9-1.3.9-2.1.3-.9.2-1.9-.4-2.7a2.7 2.7 0 0 0-4.8 1 2.7 2.7 0 0 0-1.8 1.8h-.1l-.8.5c-.5.3-.8.8-1 1.4l-.2.2-.5.3-.8 1.1-.3.5-.4.5-.4.3-.3.2-.1.2-.7.3-.6.8-.6.4v-.2-.3-.6c0-.6-.1-1.2-.4-1.6l.2-1c0-.2 0-.5-.2-.8.2-.4.2-.9 0-1.3v-.5a2.8 2.8 0 0 0 .5-1.1v-.3c.2-.4.2-.7.2-1v-.6a2.7 2.7 0 0 0 .6-2.6l.4-.8c.2-.4.2-.8.1-1.2l.7-.5.4-.6c.3-.3.5-.6.6-1 .2 0 .4-.2.6-.4.3-.3.5-.7.6-1l.3-.7c.2-.1.3-.3.3-.4l.1-.1.5-.7.2-.2.4-.4a2.7 2.7 0 0 0 3.2-1l.7-.4h1.5l.8-.4h1A2.7 2.7 0 0 0 35 6c.4 0 .9 0 1.2-.3h.2l.7.3c.3 0 .5.2.8.3h.4a2.8 2.8 0 0 0 2.1 0l1 .3 1 .1c.4.1.7.2 1 .1l.6.3a2.7 2.7 0 0 0 1.3 1.1l.2.2c.4.2.8.4 1.2.4l.6.2v.4l.8 1 .2.4c.2.5.5.8.9 1.1a2.7 2.7 0 0 0 .9 2.3c.2.4.4.7.8 1a2.7 2.7 0 0 0 .5 1.6l.3 1a2.7 2.7 0 0 0 0 2.8 2.7 2.7 0 0 0 .5 3c-.2.2-.3.5-.3.8l-.2.5-.5.6c-.3.4-.5 1-.5 1.5l-.1.5c-.5.2-.9.5-1.2 1-.3.5-.5 1.2-.4 1.8l-.5.1c-.4.2-.8.5-1 .8l-.4.1-1 .7a2.8 2.8 0 0 0-1.4.7l-.8.5-.6.1h-1.4-.2c-.2-.2-.4-.3-.7-.3-.5-.1-1 0-1.5.2h-.2c-.6-.2-1.2-.1-1.7.1a2.7 2.7 0 1 0 1.3 5.3h2l.8.3c.5.1 1 0 1.5-.1h.3a2.7 2.7 0 0 0 2.7-.3h.2c.5-.3 1-.7 1.3-1.2a2.7 2.7 0 0 0 1.8-.8l.6-.1.9-.6c.2 0 .4 0 .7-.2.5-.2.9-.5 1.2-1l.5-.5.1-.2.4-.5c.3-.4.4-.8.5-1.3l.2-.9h.1a2.7 2.7 0 0 0 1.3-2.4 2.7 2.7 0 0 0 1.1-2.6c.6-.4 1-1.1 1-2" fill="#000" mask="url(#uid_1)"/></g></g></g></g><g id="s20-924" transform="translate(20, 924.0)"><g transform="translate(-0.0, -0.0)"><title>searchTexture</title><defs><path d="M0 0h41.8v44H0z" id="uid_2"/></defs><g fill="none" fill-rule="evenodd"><path d="M75.6 80c2.4 0 4.4-2 4.4-4.4V4.4C80 2 78 0 75.6 0H4.4C2 0 0 2 0 4.4v71.2C0 78 2 80 4.4 80h71.2z" fill="#FFF"/><g transform="translate(20 18)"><mask fill="#fff" id="uid_3"><use xlink:href="#uid_2"/></mask><path d="M18.8 26.1h-.4-.3l-.8.3-.5.1a2.2 2.2 0 0 0-1.7.2 2.2 2.2 0 0 0-1.4-.4c-.4-.1-.9-.2-1.2 0L12 26c-.3-.2-.6-.2-1-.3a2.3 2.3 0 0 0-1.4-1h-.3c-.1-.2-.3-.3-.4-.3a2.2 2.2 0 0 0-1.3-1.1l-.2-.2a2.2 2.2 0 0 0-.8-1.4 2.3 2.3 0 0 0-.5-1 2.2 2.2 0 0 0-.5-1v-.1a2.3 2.3 0 0 0-.4-1.9l-.4-.6a2.2 2.2 0 0 0 0-1.3 2.2 2.2 0 0 0 .2-2.4 2.3 2.3 0 0 0 .2-.7v-.1a2.2 2.2 0 0 0 .7-2l.4-.8.1-.2A2.2 2.2 0 0 0 8 7.9l.6-.5a2.2 2.2 0 0 0 1.3-.8l.3-.3.2-.1a2.2 2.2 0 0 0 .9-.5h.3a2.1 2.1 0 0 0 1-.2l.6-.2a2.2 2.2 0 0 0 1.7-.4 2.2 2.2 0 0 0 1.3-.3l.9.1h.2l.3.2h.1a2.2 2.2 0 0 0 2 .3h.2c.3.2.7.3 1 .3a2.2 2.2 0 0 0 .8.7 2.3 2.3 0 0 0 .7.5l.7.4a2.2 2.2 0 0 0 .8.8l.2.3a2.3 2.3 0 0 0 .3.6 2.2 2.2 0 0 0 .8 1 2.2 2.2 0 0 0 .5.9v.3c.2.5.4.9.8 1.1a2.2 2.2 0 0 0 0 1.8l.2.7a2.3 2.3 0 0 0 .2 1.5v.1l-.1.5a2.2 2.2 0 0 0-.1.4 2.2 2.2 0 0 0-.4 1.2v.8a2.2 2.2 0 0 0-.3.7c-.5.5-.7 1-.6 1.6a2.2 2.2 0 0 0-.8 1l-.3.7-.3.4a2.2 2.2 0 0 0-2 1 2.2 2.2 0 0 0-1.4 1.3l-.5.3a2.2 2.2 0 0 0-.7 0h-.5m22.5 14.3l-.2-.3a2.2 2.2 0 0 0-1.3-1.7c-.3-.3-.6-.5-1-.6l-.3-.5a2.3 2.3 0 0 0-1.5-1.5 2.2 2.2 0 0 0-1-1.3 2.3 2.3 0 0 0-1-1.1l-.2-.4c-.4-.4-.8-.6-1.3-.8l-.5-.4a2.2 2.2 0 0 0-1-1.2c-.2-.3-.4-.5-.7-.6a2.2 2.2 0 0 0-.7-1.3l-.2-.2c-.4-.5-1-.8-1.5-.9a2.3 2.3 0 0 0-1.1-1l-.1-.2c.2-.3.3-.7.3-1v-.1l.4-.6v-.2a2.2 2.2 0 0 0 .8-1c.2-.3.4-.6.4-.9l.3-.2c.4-.5.6-1 .5-1.6a2.3 2.3 0 0 0 .2-1.6v-.3-.1a2.3 2.3 0 0 0 .4-1v-.2a2.2 2.2 0 0 0 .5-1.3v-.4c.1-.5 0-1-.2-1.3a2.3 2.3 0 0 0-.4-1.6 2.2 2.2 0 0 0 0-1.6c0-.5-.1-.8-.3-1.1-.1-.4-.3-.8-.6-1.1a2.3 2.3 0 0 0-.6-1A2.2 2.2 0 0 0 28 6.3L28 6V6a2.2 2.2 0 0 0-1.7-2 2.3 2.3 0 0 0-1-.7l-.4-.2c-.2-.2-.3-.3-.5-.3v-.1a2.2 2.2 0 0 0-1.6-1.2c-.2-.2-.6-.3-.9-.3A2.2 2.2 0 0 0 20 .6h-1-.5a2.2 2.2 0 0 0-1.1-.3H17a2.2 2.2 0 0 0-1.4-.2 2.3 2.3 0 0 0-1 .1 2.2 2.2 0 0 0-1.5.1 2.2 2.2 0 0 0-2.2 1h-.1a2.1 2.1 0 0 0-.7 0 2.2 2.2 0 0 0-1.5.7l-.1.1a2.2 2.2 0 0 0-1 .6h-.1c-.2 0-.3.2-.5.3a2.2 2.2 0 0 0-1.8 1.3 2.3 2.3 0 0 0-.9.8 2.2 2.2 0 0 0-.6 1 2.3 2.3 0 0 0-.7.8V7c-.3.2-.4.5-.5.8l-.2.2a2.3 2.3 0 0 0-.5.8c-.5.6-.7 1.3-.5 2v.1l-.1.3-.2.2a2.2 2.2 0 0 0-.5 1.9v.8a2.2 2.2 0 0 0-.2.6 2.2 2.2 0 0 0 0 2.2 2.2 2.2 0 0 0 .2 1.4c.1.4.3.8.6 1.1l.2.3v.2a2.3 2.3 0 0 0 .7 2.5 2.3 2.3 0 0 0 .4.7 2.2 2.2 0 0 0 1 1.9 2.3 2.3 0 0 0 .6.7 2.3 2.3 0 0 0 1.7 1.9 2.2 2.2 0 0 0 1.1.7l.4.2.6.3a2.2 2.2 0 0 0 1.2 1l1 .4a2.2 2.2 0 0 0 1.9.6h1a2.2 2.2 0 0 0 1.1.5 2.2 2.2 0 0 0 1.6.1c.5 0 1-.1 1.4-.4h.1l.7-.1c.3 0 .5-.1.8-.3h.2a2.3 2.3 0 0 0 .6 0h.4a2.2 2.2 0 0 0 2-.3l.9-.6.3-.2.2-.1c.3-.1.5-.3.7-.6v.1a2.2 2.2 0 0 0 1.4 1.5 2.2 2.2 0 0 0 1.1 1l.6.3a2.2 2.2 0 0 0 1.3 1.6l.5.4h.1a2.2 2.2 0 0 0 1.2 1.6l.2.3c.4.5.9.8 1.4.9l.2.1a2.2 2.2 0 0 0 1.2 1.7 2.2 2.2 0 0 0 .6.7 2.2 2.2 0 0 0 1.2 1l.1.1a2.2 2.2 0 0 0 .7.9v.1c.4.4.8.7 1.3.8a2.2 2.2 0 0 0 .6 1l.1.2c.8 1 2.2 1.2 3.2.4 1-.7 1.2-2.1.4-3.1" fill="#000" mask="url(#uid_3)"/></g><path d="M44 31v-.1-.1-.2-.4c-.1-.3-.3-.5-.5-.6v-.4-.2c-.1-.3-.3-.5-.5-.6l-.1-.6a1 1 0 0 0-.8-.4v-.1l-.2-.3-.2-.2-.2-.2a1 1 0 0 0-.5-.3h-.2l-.1-.1a.8.8 0 0 0-.3-.3l-.2-.3a1 1 0 0 0-1.2-.1 1 1 0 0 0-.4-.2 1 1 0 0 0-.5 0 1 1 0 0 0-.8 0H37a1 1 0 0 0-.7-.3H36h-.2a1 1 0 0 0-.7.3c-.3 0-.5.2-.6.4h-.1l-.1.1a1 1 0 0 0-.6 0c-.2 0-.4.2-.5.4h-.2l-.3.3h-.2c-.4.1-.7.6-.6 1 .2.5.7.7 1.1.6h.4l.4-.3h.4l.3-.3h.1l.4-.2h.1l.3-.2.3-.1h.2l.2-.2a1 1 0 0 0 .8.1H38.2a1 1 0 0 0 .6.2c.2.1.3.1.4 0l.1.1.2.2c.1.2.3.2.5.3h.2l.2.2.2.2.2.3a.8.8 0 0 0 .5.4v.1l.2.2c0 .2.1.4.3.5v.2a.8.8 0 0 0 .2.7l.2.3v.3l.1.1v.2c.1.4.6.7 1.1.6.5-.1.8-.6.7-1" fill="#000"/></g></g></g><g id="s20-1024" transform="translate(20, 1024.0)"><g transform="translate(-0.0, -0.0)"><title>tw</title><g fill="none" fill-rule="evenodd"><path d="M75.6 80c2.4 0 4.4-2 4.4-4.4V4.4C80 2 78 0 75.6 0H4.4C2 0 0 2 0 4.4v71.2C0 78 2 80 4.4 80h71.2z" fill="#1DA1F2"/><path d="M30.7 60.3A29 29 0 0 0 60 31.1v-1.3c2-1.4 3.7-3.2 5.1-5.3-1.9.8-3.9 1.4-5.9 1.6 2.1-1.3 3.8-3.3 4.5-5.7-2 1.2-4.2 2-6.5 2.5a10.3 10.3 0 0 0-17.5 9.4c-8.2-.4-16-4.3-21.1-10.7a10.3 10.3 0 0 0 3.2 13.7c-1.7 0-3.3-.5-4.7-1.3v.1c0 4.9 3.4 9 8.2 10-1.5.5-3 .5-4.6.2 1.3 4.2 5.2 7 9.6 7.2A20.6 20.6 0 0 1 15 55.7a29 29 0 0 0 15.7 4.6" fill="#FFF" fill-rule="nonzero"/></g></g></g></svg>