<?xml version="1.0" ?><svg xmlns="http://www.w3.org/2000/svg" xmlns:xlink="http://www.w3.org/1999/xlink" width="532.0px" height="5847px" viewBox="0 0 532.0 5847" preserveAspectRatio="none"><g transform="translate(20, 20)" id="s20-20"><g transform="translate(-0.0, -0.0)"><path d="M449.8 646.3a3625 3625 0 01-407.6 0C21.6 645 5.5 631.4 4.9 614.6A8430 8430 0 015 37.4C5.5 20.6 21.6 6.9 42.2 5.7c135.9-7.6 271.7-7.6 407.6 0 20.6 1.2 36.7 14.9 37.3 31.7a8430 8430 0 010 577.2c-.6 16.8-16.7 30.5-37.3 31.7z" fill="#fff"/></g></g><g transform="translate(20, 692)" id="s20-692"><g transform="translate(-0.0, -0.0)"><path d="M449.5 440.1a5320.9 5320.9 0 01-407 0A40 40 0 014.1 402C-1.4 282-1.4 162 4.1 42.1A40 40 0 0142.5 3.9a5320 5320 0 01407 0A40 40 0 01487.9 42c5.5 120 5.5 239.9 0 359.9a40 40 0 01-38.4 38.1z" fill="#fff"/></g></g><g transform="translate(20, 1156)" id="s20-1156"><g transform="translate(-0.0, -0.0)"><path d="M449.8 317.3a7381.5 7381.5 0 01-407.3 0 40 40 0 01-38.9-37.7c-4.6-79.7-4.6-159.3 0-239A40 40 0 0142.5 2.9C178.2-1 314-1 449.8 2.9a40 40 0 0138.8 37.7c4.7 79.7 4.7 159.3 0 239a40 40 0 01-38.8 37.7z" fill="#fff"/></g></g><g transform="translate(20, 1496)" id="s20-1496"><g transform="translate(-0.0, -0.0)"><path d="M104.8 116c-30.9 1.3-61.7 1.3-92.6 0-6.1-.2-11-5-11.3-11.2C-.3 74-.3 43.1 1 12.2 1.2 6 6.1 1.2 12.2.9 43-.3 73.9-.3 104.8 1c6.1.3 11 5.2 11.3 11.3 1.2 30.9 1.2 61.7 0 92.6-.3 6.1-5.2 11-11.3 11.3z" fill="#FFBEDD"/></g></g><g transform="translate(20, 1633)" id="s20-1633"><g transform="translate(-0.0, -0.0)"><path d="M450.3 487.7a4805.6 4805.6 0 01-408.6 0 39 39 0 01-37.4-37.4 4806.2 4806.2 0 010-408.6A39 39 0 0141.7 4.3c136.2-5.7 272.4-5.7 408.6 0a39 39 0 0137.4 37.4c5.7 136.2 5.7 272.4 0 408.6a39 39 0 01-37.4 37.4z" fill="#fff"/></g></g><g transform="translate(20, 2145)" id="s20-2145"><g transform="translate(-0.0, -0.0)"><path d="M449.6 713.7a3283 3283 0 01-407.3 0A40 40 0 014.9 675c-6.4-210-6.4-420 0-630A40 40 0 0142.4 6.3a3283 3283 0 01407.2 0A40 40 0 01487.3 45c6.4 210 6.4 420 0 630a40 40 0 01-37.6 38.7z" fill="#fff"/></g></g><g transform="translate(20, 2885)" id="s20-2885"><g transform="translate(-0.0, -0.0)"><g fill="#BE33C1" fill-opacity=".3"><path d="M116.2 68.2a23 23 0 11-23-40 23 23 0 0123 40zM94.2 30a21 21 0 1021 36.4 21 21 0 00-21-36.4zM59 101.2a23 23 0 11-23-40 23 23 0 0123 40zM37 63a21 21 0 1021 36.4A21 21 0 0037 63z"/><path d="M87.7 18.8A34 34 0 0072 57.7a34 34 0 108.2 14.1 34 34 0 107.5-53zM63.5 109a32 32 0 11-32-55.5 32 32 0 0132 55.5zm57.2-33a32 32 0 11-32-55.6 32 32 0 0132 55.6z"/></g><g fill="#BE33C1"><path d="M125.7 40.7a4 4 0 10-4-6.9 4 4 0 004 7zM87.6 62.7a4 4 0 10-4-6.9 4 4 0 004 7zM74.1 61.3a4 4 0 10-4-6.9 4 4 0 004 7zM101.8 84.4a4 4 0 10-4-7 4 4 0 004 7zM129.1 76a4 4 0 10-4-7 4 4 0 004 7zM139.6 49.3a4 4 0 10-4-7 4 4 0 004 7zM76 39.7a4 4 0 10-4-7 4 4 0 004 7zM97 20.2a4 4 0 10-4-6.9 4 4 0 004 7zM125.3 24.5a4 4 0 10-4-6.9 4 4 0 004 7z"/></g><g fill="#BE33C1"><path d="M30.4 95.7a4 4 0 10-4-6.9 4 4 0 004 7zM68.5 73.7a4 4 0 10-4-6.9 4 4 0 004 7zM82.1 75.2a4 4 0 10-4-7 4 4 0 004 7zM76.2 89.9a4 4 0 104 7 4 4 0 00-4-7zM55.2 109.4a4 4 0 104 6.9 4 4 0 00-4-7zM30.9 112a4 4 0 10-4-7 4 4 0 004 7zM54.4 52.1a4 4 0 10-4-6.9 4 4 0 004 7zM27 60.6a4 4 0 10-4-7 4 4 0 004 7zM16.6 87.3a4 4 0 10-4-7 4 4 0 004 7z"/></g><g fill="#941298"><path d="M110.7 58.7a12 12 0 10-12-20.8 12 12 0 0012 20.8zM53.5 91.7a12 12 0 10-12-20.8 12 12 0 0012 20.8z"/></g></g></g><g transform="translate(20, 3035)" id="s20-3035"><g transform="translate(-0.0, -0.0)"><path d="M26 14H10.8l4.6-4.6c.8-.8.8-2 0-2.8a2 2 0 00-2.8 0l-8 8a2 2 0 000 2.8l8 8c.4.4.9.6 1.4.6s1-.2 1.4-.6c.8-.8.8-2 0-2.8L10.8 18H26c1.1 0 2-.9 2-2s-.9-2-2-2z" fill="#be33c1"/></g></g><g transform="translate(20, 3087)" id="s20-3087"><g transform="translate(-0.0, -0.0)"><path d="M26 14H10.8l4.6-4.6c.8-.8.8-2 0-2.8a2 2 0 00-2.8 0l-8 8a2 2 0 000 2.8l8 8c.4.4.9.6 1.4.6s1-.2 1.4-.6c.8-.8.8-2 0-2.8L10.8 18H26c1.1 0 2-.9 2-2s-.9-2-2-2z" fill="#941298"/></g></g><g transform="translate(20, 3139)" id="s20-3139"><g transform="translate(-0.0, -0.0)"><path d="M18.8 16l8.6-8.6c.8-.8.8-2 0-2.8s-2-.8-2.8 0L16 13.2 7.4 4.6c-.8-.8-2-.8-2.8 0s-.8 2 0 2.8l8.6 8.6-8.6 8.6a2 2 0 000 2.8c.4.4.9.6 1.4.6s1-.2 1.4-.6l8.6-8.6 8.6 8.6c.4.4.9.6 1.4.6s1-.2 1.4-.6c.8-.8.8-2 0-2.8L18.8 16z"/></g></g><g transform="translate(20, 3191)" id="s20-3191"><g transform="translate(-0.0, -0.0)"><style>.cl0 {
    fill: #be33c1
    }</style><path class="cl0" d="M24 4h2a2 2 0 012 2v2a2 2 0 01-2 2h-2a2 2 0 01-2-2V6c0-1.1.9-2 2-2zM15 4h2a2 2 0 012 2v2a2 2 0 01-2 2h-2a2 2 0 01-2-2V6c0-1.1.9-2 2-2zM6 4h2a2 2 0 012 2v2a2 2 0 01-2 2H6a2 2 0 01-2-2V6c0-1.1.9-2 2-2zM24 13h2a2 2 0 012 2v2a2 2 0 01-2 2h-2a2 2 0 01-2-2v-2c0-1.1.9-2 2-2zM24 22h2a2 2 0 012 2v2a2 2 0 01-2 2h-2a2 2 0 01-2-2v-2c0-1.1.9-2 2-2zM15 22h2a2 2 0 012 2v2a2 2 0 01-2 2h-2a2 2 0 01-2-2v-2c0-1.1.9-2 2-2zM6 22h2a2 2 0 012 2v2a2 2 0 01-2 2H6a2 2 0 01-2-2v-2c0-1.1.9-2 2-2zM15 13h2a2 2 0 012 2v2a2 2 0 01-2 2h-2a2 2 0 01-2-2v-2c0-1.1.9-2 2-2zM6 13h2a2 2 0 012 2v2a2 2 0 01-2 2H6a2 2 0 01-2-2v-2c0-1.1.9-2 2-2z"/></g></g><g transform="translate(20, 3243)" id="s20-3243"><g transform="translate(-0.0, -0.0)"><style>.cl1 {
    fill: #941298
    }</style><path class="cl1" d="M24 4h2a2 2 0 012 2v2a2 2 0 01-2 2h-2a2 2 0 01-2-2V6c0-1.1.9-2 2-2zM15 4h2a2 2 0 012 2v2a2 2 0 01-2 2h-2a2 2 0 01-2-2V6c0-1.1.9-2 2-2zM6 4h2a2 2 0 012 2v2a2 2 0 01-2 2H6a2 2 0 01-2-2V6c0-1.1.9-2 2-2zM24 13h2a2 2 0 012 2v2a2 2 0 01-2 2h-2a2 2 0 01-2-2v-2c0-1.1.9-2 2-2zM24 22h2a2 2 0 012 2v2a2 2 0 01-2 2h-2a2 2 0 01-2-2v-2c0-1.1.9-2 2-2zM15 22h2a2 2 0 012 2v2a2 2 0 01-2 2h-2a2 2 0 01-2-2v-2c0-1.1.9-2 2-2zM6 22h2a2 2 0 012 2v2a2 2 0 01-2 2H6a2 2 0 01-2-2v-2c0-1.1.9-2 2-2zM15 13h2a2 2 0 012 2v2a2 2 0 01-2 2h-2a2 2 0 01-2-2v-2c0-1.1.9-2 2-2zM6 13h2a2 2 0 012 2v2a2 2 0 01-2 2H6a2 2 0 01-2-2v-2c0-1.1.9-2 2-2z"/></g></g><g transform="translate(20, 3295)" id="s20-3295"><g transform="translate(-0.0, -0.0)"><path d="M31.9 54.5c-1.5 0-2.9-.3-4.2-.9a39 39 0 01-11.4-7.9l-.2-.2C6.3 35.7 3.6 23.1 9.8 16.8c4.7-4.7 13.6-4.2 22.2 1.2 8.7-5.5 17.3-6 22.2-1.2 3.2 3.2 4.1 8 2.7 13.7a33.4 33.4 0 01-9 15l-.2.2a35.6 35.6 0 01-11.4 7.9c-1.5.6-3 .9-4.4.9zM18.5 18.6a7 7 0 00-5.1 1.8c-4.2 4.2-1.3 14.1 6.3 21.6l.2.2a34 34 0 009.9 6.9 6 6 0 004.6 0c3.3-1.4 6.7-3.7 9.8-6.8l.2-.2c3.9-3.9 6.6-8.4 7.7-12.7 1-3.9.5-7-1.4-8.9-3.3-3.3-10.2-2.2-17.2 2.7-.9.6-2 .6-2.9 0a21.4 21.4 0 00-12.1-4.6z" fill="#fff"/></g></g><g transform="translate(20, 3379)" id="s20-3379"><g transform="translate(-0.0, -0.0)"><path d="M26 28h-7a2 2 0 01-2-2v-5h-2v5a2 2 0 01-2 2H6a2 2 0 01-2-2V14c0-.6.3-1.2.8-1.6l10-8a2 2 0 012.4 0l10 8c.5.4.8 1 .8 1.6v12a2 2 0 01-2 2zm-5-4h3v-9l-8-6.4L8 15v9h3v-5c0-1.1.9-2 2-2h6a2 2 0 012 2v5z" fill="#BE33C1"/></g></g><g transform="translate(20, 3431)" id="s20-3431"><g transform="translate(-0.0, -0.0)"><path d="M26 28h-7a2 2 0 01-2-2v-5h-2v5a2 2 0 01-2 2H6a2 2 0 01-2-2V14c0-.6.3-1.2.8-1.6l10-8a2 2 0 012.4 0l10 8c.5.4.8 1 .8 1.6v12a2 2 0 01-2 2zm-5-4h3v-9l-8-6.4L8 15v9h3v-5c0-1.1.9-2 2-2h6a2 2 0 012 2v5z" fill="#941298"/></g></g><g transform="translate(20, 3483)" id="s20-3483"><g transform="translate(-0.0, -0.0)"><style>.cl2 {
    fill: #be33c1
    }</style><path class="cl2" d="M16 0C7.2 0 0 7.2 0 16s7.2 16 16 16 16-7.2 16-16S24.8 0 16 0zm0 28C9.4 28 4 22.6 4 16S9.4 4 16 4s12 5.4 12 12-5.4 12-12 12z"/><circle class="cl2" cx="16" cy="10" r="2"/><path class="cl2" d="M16 14a2 2 0 00-2 2v6c0 1.1.9 2 2 2s2-.9 2-2v-6a2 2 0 00-2-2z"/></g></g><g transform="translate(20, 3535)" id="s20-3535"><g transform="translate(-0.0, -0.0)"><style>.cl3 {
    fill: #941298
    }</style><path class="cl3" d="M16 0C7.2 0 0 7.2 0 16s7.2 16 16 16 16-7.2 16-16S24.8 0 16 0zm0 28C9.4 28 4 22.6 4 16S9.4 4 16 4s12 5.4 12 12-5.4 12-12 12z"/><circle class="cl3" cx="16" cy="10" r="2"/><path class="cl3" d="M16 14a2 2 0 00-2 2v6c0 1.1.9 2 2 2s2-.9 2-2v-6a2 2 0 00-2-2z"/></g></g><g transform="translate(20, 3587)" id="s20-3587"><g transform="translate(-0.0, -0.0)"><path d="M27.8 42c-.6 0-1.2 0-1.9-.2-4-.7-8.3-2.4-12-4.7l-.3-.1C2.4 30-2.9 18.9 1.6 11.4c3-5 10-6.9 18.3-4.9.4.1.8.6.7 1l-1 13.3 4.7-2a1 1 0 011.3.7l1.7 5.6 3.3-11.7-5.4 2a1 1 0 01-1.4-1l.7-9c0-.4.1-.6.4-.8 6-4.8 12.5-6 17.3-3C46 3.9 48 8.2 48 14c0 5-1.8 10.7-4.9 15.8l-.1.2c-2.5 4-5.5 7.5-8.7 9.8a11.8 11.8 0 01-6.5 2.2zM13.7 7.7C8.9 7.7 5 9.4 3.3 12.5-.6 19 4.4 29 14.7 35.3l.2.1c3.5 2.2 7.7 3.8 11.4 4.4a8 8 0 003.5 0c1.1-.3 2.3-.9 3.4-1.6 3-2.2 5.7-5.4 8-9.2l.2-.2c3-4.9 4.6-10.1 4.6-14.8 0-5-1.7-8.8-4.8-10.7-4-2.4-9.5-1.4-14.8 2.6L26 13l5.7-2.2A1 1 0 0133 12L28.3 29a1 1 0 01-1 .7c-.4 0-.8-.3-.9-.7L24 21.2l-5.2 2a1 1 0 01-1.4-1l1.2-14c-1.8-.3-3.4-.5-5-.5z" fill="#f38bb9"/></g></g><g transform="translate(20, 3649)" id="s20-3649"><g transform="translate(-0.0, -0.0)"><style>.cl4 {
    fill: #941298
    }</style><path class="cl4" d="M26 19a2 2 0 00-2 2v3H8V8h3a2 2 0 000-4H6a2 2 0 00-2 2v20c0 1.1.9 2 2 2h20a2 2 0 002-2v-5a2 2 0 00-2-2z"/><path class="cl4" d="M26 4h-7a2 2 0 000 4h2.2l-5.6 5.6a2 2 0 102.8 2.8l5.6-5.6V13a2 2 0 004 0V6a2 2 0 00-2-2z"/></g></g><g transform="translate(20, 3701)" id="s20-3701"><g transform="translate(-0.0, -0.0)"><style>.cl5 {
    fill: #be33c1
    }</style><path class="cl5" d="M26 19a2 2 0 00-2 2v3H8V8h3a2 2 0 000-4H6a2 2 0 00-2 2v20c0 1.1.9 2 2 2h20a2 2 0 002-2v-5a2 2 0 00-2-2z"/><path class="cl5" d="M26 4h-7a2 2 0 000 4h2.2l-5.6 5.6a2 2 0 102.8 2.8l5.6-5.6V13a2 2 0 004 0V6a2 2 0 00-2-2z"/></g></g><g transform="translate(20, 3753)" id="s20-3753"><g transform="translate(-0.0, -0.0)"><path d="M43 40.2L29.2 26.4a14 14 0 10-2.8 2.8L40.2 43a2 2 0 002.8 0c.8-.7.8-2 0-2.8zM8 18a10 10 0 1120 0 10 10 0 01-20 0z" fill="#941298"/></g></g><g transform="translate(20, 3821)" id="s20-3821"><g transform="translate(-0.0, -0.0)"><path d="M43 40.2L29.2 26.4a14 14 0 10-2.8 2.8L40.2 43a2 2 0 002.8 0c.8-.7.8-2 0-2.8zM8 18a10 10 0 1120 0 10 10 0 01-20 0z" fill="#be33c1"/></g></g><g transform="translate(20, 3889)" id="s20-3889"><g transform="translate(-0.0, -0.0)"><path d="M33 28a8 8 0 00-5.8 2.5L18.7 26a8 8 0 000-3.8l8.5-4.6A8 8 0 0041 12a8 8 0 10-15.7 2l-8.5 4.5A8 8 0 003 24a8 8 0 0013.8 5.5l8.5 4.6A8 8 0 0033 44a8 8 0 000-16zm0-20a4 4 0 110 8 4 4 0 010-8zM11 28a4 4 0 110-8 4 4 0 010 8zm22 12a4 4 0 110-8 4 4 0 010 8z" fill="#941298"/></g></g><g transform="translate(20, 3957)" id="s20-3957"><g transform="translate(-0.0, -0.0)"><path d="M33 28a8 8 0 00-5.8 2.5L18.7 26a8 8 0 000-3.8l8.5-4.6A8 8 0 0041 12a8 8 0 10-15.7 2l-8.5 4.5A8 8 0 003 24a8 8 0 0013.8 5.5l8.5 4.6A8 8 0 0033 44a8 8 0 000-16zm0-20a4 4 0 110 8 4 4 0 010-8zM11 28a4 4 0 110-8 4 4 0 010 8zm22 12a4 4 0 110-8 4 4 0 010 8z" fill="#be33c1"/></g></g><g transform="translate(20, 4025)" id="s20-4025"><g transform="translate(-0.0, -0.0)"><style>.cl6 {
    fill: #941298
    }</style><path class="cl6" d="M38 18h-6a2 2 0 000 4h4v17H12V22h4a2 2 0 000-4h-6a2 2 0 00-2 2v21c0 1.1.9 2 2 2h28a2 2 0 002-2V20a2 2 0 00-2-2z"/><path class="cl6" d="M18.4 13.4L22 9.8V30a2 2 0 004 0V9.8l3.6 3.6a2 2 0 002.8 0c.8-.8.8-2 0-2.8l-7-7a2 2 0 00-2.8 0l-7 7a2 2 0 102.8 2.8z"/></g></g><g transform="translate(20, 4093)" id="s20-4093"><g transform="translate(-0.0, -0.0)"><style>.cl7 {
    fill: #be33c1
    }</style><path class="cl7" d="M38 18h-6a2 2 0 000 4h4v17H12V22h4a2 2 0 000-4h-6a2 2 0 00-2 2v21c0 1.1.9 2 2 2h28a2 2 0 002-2V20a2 2 0 00-2-2z"/><path class="cl7" d="M18.4 13.4L22 9.8V30a2 2 0 004 0V9.8l3.6 3.6a2 2 0 002.8 0c.8-.8.8-2 0-2.8l-7-7a2 2 0 00-2.8 0l-7 7a2 2 0 102.8 2.8z"/></g></g><g transform="translate(20, 4161)" id="s20-4161"><g transform="translate(-0.0, -0.0)"><style>.cl8 {
    fill: #ff8bc3
    }</style><path d="M44 27.6v-.2a8 8 0 00-10.3-3.6 8 8 0 00-4.5 9.3l5 20-25.4 8.6a8 8 0 00-1.5 14.4 8 8 0 004.2 13A8 8 0 0021 99.9a8 8 0 0010.4 9.2l16.8-5.8a26 26 0 0016.3-33A453.9 453.9 0 0044 27.6zM14.8 85.1a4 4 0 01-2.6-7.6l11.3-3.8a4 4 0 012.6 7.5l-.2.1-11.1 3.8zm15-23.7a8 8 0 00-1.7-2l3.1-1-1.4 3zM10 65.5l11.4-3.9a4 4 0 012.5 7.6l-11.3 3.9a4 4 0 01-2.6-7.6zm5 27.9a4 4 0 012.5-5l9.5-3.3a4 4 0 012.6 7.6l-9.5 3.2a4 4 0 01-5-2.5zM30 105.2a4 4 0 01-2.6-7.5l6.6-2.3a4 4 0 012.6 7.6l-6.6 2.2zm16.8-5.7l-3.7 1.2a8 8 0 00-7.1-9.5 8 8 0 00.3-3.5c2 1.8 4.4 3.2 7 4.2a2 2 0 101.4-3.7 19.5 19.5 0 01-11.3-25.4c1-2.6 2.6-5 4.5-7l.3-.3v-.1l.2-.4.1-.5v-.2-.3L33 32.3v-.3a4 4 0 012.2-4.6 4 4 0 015.2 2l.2.2c1.4 2.6 15.9 30.2 19.9 41.9a22 22 0 01-13.8 27.9z" fill="#be33c1"/><path class="cl8" d="M21.3 31.8l-14-.5a2 2 0 01.1-4l14 .5a2 2 0 010 4zM10.3 44.9a2 2 0 01-.7-4L23 36.6a2 2 0 011.3 3.8l-13.3 4.5a2 2 0 01-.6 0zM24.2 23.4a2 2 0 01-.8-.2l-12.9-5.5a2 2 0 111.6-3.6L25 19.6a2 2 0 01-.8 3.8z"/><g><path class="cl8" d="M50.2 23.7a2 2 0 01-1.1-3.7l11.5-8a2 2 0 012.3 3.3l-11.5 8a2 2 0 01-1.2.4zM53 32a2 2 0 01-.5-3.9l13.6-3.3a2 2 0 111 3.8L53.5 32a2 2 0 01-.5 0zM43.3 18.1a2 2 0 01-1.7-3l7.9-11.7a2 2 0 013.3 2.3l-7.9 11.6a2 2 0 01-1.6.8z"/></g></g></g><g transform="translate(20, 4293)" id="s20-4293"><g transform="translate(-0.0, -0.0)"><path d="M47.6 19a4.1 4.1 0 00-7.4-.2l-1 1.8-7-14.4a4.1 4.1 0 00-7-.5 4.1 4.1 0 00-7.5.8c-.3.9-.3 1.8 0 2.7-.7 0-1.4 0-2.1.4-2 1-3 3.5-2 5.5l1.2 2.4c-.7 0-1.4 0-2.1.4-2 1-3 3.4-2 5.5l6.3 13a13.4 13.4 0 0018 6.3c4.7-2.3 8-5.9 9.5-10.3L47.8 22v-.1c.3-1 .2-2-.2-3zM20.7 6a2 2 0 012.8 1L29 18.5a13.7 13.7 0 00-3.9 1.5L19.8 8.8a2 2 0 011-2.8zm-4.2 5.5a2 2 0 012.7 1l4.2 8.6c-1.1 1-2.1 2.1-3 3.4L18.8 21l-.5-1.1-2.7-5.6a2 2 0 011-2.7zm29.3 9.9l-3.3 10.3c-1.3 4-4.1 7-8.5 9.1-5.6 2.7-12.4.4-15.1-5.3l-6.3-13a2 2 0 011-2.8 2 2 0 012.7 1l.7 1.4v.1l2.5 5c0 .2.1.3.2.3.1.2.2.2.3.2l.4.1h.5l.3-.3.2-.3a11.4 11.4 0 0110.9-7c.5 0 1-.4 1-1 0-.5-.4-1-1-1h-1.1L29.7 15l-1.4-2.9-1.6-3.2A2 2 0 0130.4 7L38 22.9l-1.1 2c-1.1 0-2.3.3-3.3.8a7.2 7.2 0 00-3.4 9.6 1 1 0 101.9-.9A5.2 5.2 0 0137 27c.5.3 1 0 1.3-.4l3.7-6.7v-.1a2 2 0 011-1 2 2 0 012.7 1c.3.5.3 1 .1 1.6z" fill="#fff"/><path d="M2.5 25.3c-.5-2.3-.6-4.6-.1-7a1 1 0 00-2-.3 18.4 18.4 0 002.8 13.9c.2.3.5.5.9.5l.5-.2c.5-.3.6-1 .3-1.5-1.1-1.6-2-3.5-2.4-5.4zM42.9 6c1.3 2 2.2 4.1 2.7 6.4 0 .5.5.8 1 .8h.2c.6 0 1-.6.8-1.2A18.5 18.5 0 0039.8.2a1 1 0 10-1.2 1.7C40.3 3 41.7 4.4 42.9 6zM38.7 9c.9 1.3 1.5 2.8 1.8 4.4.1.5.5.8 1 .8h.2c.6 0 1-.6.8-1.2A13.2 13.2 0 0037 4.5a1 1 0 10-1.2 1.7c1.2.8 2.2 1.7 3 2.8zM7.5 24c-.3-1.5-.4-3 0-4.7a1 1 0 00-2-.3 13.3 13.3 0 002 10c.2.3.5.5.8.5l.6-.2c.5-.3.6-1 .3-1.5-.8-1.1-1.3-2.4-1.7-3.7z" fill="#FF8BC3"/></g></g><g transform="translate(20, 4357)" id="s20-4357"><g transform="translate(-0.0, -0.0)"><style>.cl9 {
    fill: #fff
    }
.cl10 {
    fill: #ff9dcc
    }
.cl11 {
    fill: #ff4f6e
    }
.cl12 {
    fill: #be33c1
    }</style><path class="cl9" d="M237.4 63.4c-.9-2.4-2.5-4.3-4.5-5.6l.4-1.5c.7-3.6-.1-7.1-2.3-10-3-3.9-7.5-6.1-12.7-6.1-1.7 0-3.4.2-5.2.7l-.5.1 3.2-5.1a9 9 0 001.6-6.4 9 9 0 00-4.2-5.9l-.2-.1-.2-.1c-1.8-1-3.4-1.5-5.1-1.5l-1.5.2a8.6 8.6 0 00-4.6 2.8 9.2 9.2 0 00-4.4-4.5c-.9-.4-1.9-.6-3-.6-1.2 0-2.5.3-3.9.8l-1.2-.6-2.2-.7-1.6-.2-1.2-.1c-1 0-1.9.1-2.8.3-1-.4-2-.6-3.3-.8l-1.3-.1c-1.2 0-2.3.2-3.3.6l-.9-.4-.1-.9c-.3-2-1.3-3.8-3-5.1a9.2 9.2 0 00-5.4-1.8h-.9c-1.8 0-3.3.4-4.5 1.1a7.2 7.2 0 00-3.6 4.6l-.3 1.5-1.9-.7-2.4-.6a15 15 0 00-2.1-.2h-.5l-.1-.4c1.3-4.6.4-9.1-2.6-12-2-2-4.9-3.2-8-3.2a15 15 0 00-4.1.6c-1.4-.4-2.7-.6-4.1-.6a11 11 0 00-8 3.2c-3 3-3.9 7.4-2.6 12v.2c-1.5.1-3 .5-4.3 1.1l-.5.3-1.5-.6c-1.3-.5-2.7-.7-4.2-.7h-.2c-1.3 0-2.5.2-3.6.7-1-.4-2.2-.5-3.4-.5h-.2a9 9 0 00-5.4 1.5l-1 .8a14.7 14.7 0 00-7.8-1.9h-1c-3.1.2-5.9 1-8.3 2.5-1.2.7-2.3 1.6-3.2 2.6a14.1 14.1 0 00-9-3.4v-.1c-.1-.9-.2-1.8-.5-2.7a7.7 7.7 0 00-3.6-4.5 9.4 9.4 0 00-4.5-1.1l-1.2.1c-2.2.2-4 .8-5.3 1.9-.6.5-1.1 1-1.5 1.6-1-.4-2.1-.6-3.4-.9l-2.7-.2-2.7.2a23.2 23.2 0 00-10.2 4.4c-1.6 1.3-3 2.8-4.2 4.5a16.5 16.5 0 00-2.7 6.2c-.6 2.3-.7 4.8-.3 7.5.2 1.7.6 3.2 1.1 4.6h-1.3c-5.2 0-9.8 2.2-12.7 6.1-2.2 2.9-3 6.4-2.3 10l.4 1.5c-2 1.3-3.6 3.3-4.5 5.6-1.4 3.5-1.1 7.1.7 10.3 1.1 1.9 2.7 3.5 4.9 5-.3 1.8-.1 3.8.5 5.7 1.1 3.5 4.8 9.3 16.8 9.3l2.3-.1 1.3.8a18.2 18.2 0 0019.2-1.3c.5 5.2 1.1 10.3 1.8 15.5.8 5.6 5.9 10.1 11.6 10.2l7.3.1a321 321 0 0043.7-3.1c2.9-.4 5.5-2 7.4-4.2 1.8 2.1 4.4 3.6 7.2 4.1a310 310 0 0045.1 3.3l5.8-.1c5.7-.1 10.8-4.6 11.6-10.2.8-5.2 1.4-10.4 1.9-15.6l1.5.9c1.1.6 2.3 1.2 3.5 1.5a18.5 18.5 0 0015.4-2l2.3.1c11.9 0 15.6-5.8 16.8-9.3.6-1.9.8-3.9.5-5.7 2.2-1.4 3.8-3.1 4.9-5 1.9-3.1 2.2-6.7.8-10.2z"/><path class="cl10" d="M141.1 8.3c-1.8-1.8-4.7-1.8-7.8-.4-3.1-1.4-6-1.3-7.8.4-1.8 1.8-1.8 4.7-.4 7.8-1.4 3.1-1.3 6 .4 7.8a5 5 0 003.7 1.4c1.3 0 2.6-.3 4-1 1.4.6 2.8 1 4 1 1.5 0 2.8-.5 3.7-1.4 1.8-1.8 1.8-4.7.4-7.8 1.6-3.1 1.6-6.1-.2-7.8zm-3.7.1c1.1 0 2 .3 2.6 1 1.1 1.1 1.2 2.9.6 5l-2.4-3.1c-1-1-2-1.8-3-2.4.7-.4 1.5-.5 2.2-.5zm2.5 7.7a16.1 16.1 0 01-6.6 6.6 16.1 16.1 0 01-6.6-6.6 16.1 16.1 0 016.6-6.6 16.1 16.1 0 016.6 6.6zm-13.3-6.8c.6-.6 1.6-1 2.6-1 .7 0 1.5.1 2.3.4l-3.1 2.4c-1 1-1.8 2-2.4 3.1-.6-1.9-.5-3.8.6-4.9zm0 13.5c-1.1-1.1-1.2-2.9-.6-5l2.4 3.1c1 1 2 1.8 3.1 2.4-2 .7-3.8.6-4.9-.5zm13.4 0c-1.1 1.1-2.9 1.2-5 .5l3.1-2.4c1-1 1.8-2 2.4-3.1.7 2.1.6 3.9-.5 5z"/><path class="cl11" d="M44.3 47.1c-1.2.2-2.4.1-3.8 0-1.3-.2-2.7-.6-4.1-1.1-1.4-.6-2.6-1.4-3.8-2.4-1.2-1-2.1-2.2-2.9-3.7a15.9 15.9 0 01-1.4-10.5c.4-1.6 1-3 1.9-4.2s1.9-2.3 3-3.2a13 13 0 013.6-2.1 13.6 13.6 0 019.9-.3l1.3.5 1.5.8c.5.3.8.8.9 1.3v1l-.4 1c-.3.7-.7 1.2-1 1.5a3 3 0 01-1.1.6l-.9-.1-1.1-.5-.9-.4c-.4-.2-.9-.3-1.5-.3s-1.4-.1-2.2.1c-.9.1-1.8.4-2.7.9-.9.4-1.7 1.1-2.4 1.8-.7.8-1.2 1.7-1.6 2.8a9 9 0 00-.2 3.7 9 9 0 001.2 3.5c.6.9 1.4 1.7 2.3 2.2a8.9 8.9 0 007.6.7l1.4-.8 1-.8.8-.6.9-.4c.4 0 .8 0 1.2.3.4.2.9.6 1.4 1.2l.7.9.3.9c.1.6-.1 1-.5 1.5l-1.2 1.2-1.1.9c-.6.4-1.3.9-2.3 1.3l-3.8.8zM58.4 45.2c-1 .1-1.7 0-2.1-.2s-.7-.6-.9-1.1l-.3-1.5-2-23v-1.5c.1-.5.3-.8.7-1.2s1.1-.5 2.1-.6 1.7 0 2.1.3c.4.3.7.6.9 1.1l.3 1.5.7 8.1c.4-.5 1-1.1 1.7-1.6s1.6-.8 2.6-.9c1.6-.1 3.2.1 4.6.9s2.5 1.8 3.4 3.2a11 11 0 011.6 4.9l.6 7.2v1.5c-.1.5-.3.8-.7 1.2-.4.3-1.1.5-2.1.6s-1.7 0-2.1-.2c-.4-.2-.7-.6-.9-1l-.3-1.5-.6-7.2c-.1-.8-.3-1.4-.6-1.9a3 3 0 00-1.3-1.2 3 3 0 00-1.9-.3c-1 .1-1.8.5-2.5 1.1-.7.7-1 1.4-1.1 2.3l.7 7.9v1.5c-.1.5-.3.8-.7 1.2-.3.1-.9.3-1.9.4zM87.1 43.4a10.8 10.8 0 01-8.3-2.9c-.9-1-1.6-2-2.1-3.2s-.8-2.4-.8-3.6c-.1-2 .3-3.8 1.1-5.4s2-2.9 3.6-3.8a11 11 0 015.5-1.6c1.5-.1 2.9.1 4.1.5s2.1 1 2.9 1.8c.8.7 1.4 1.6 1.8 2.5.4.9.6 1.7.7 2.6.1 1.5-.2 2.6-.9 3.3-.7.8-1.6 1.2-2.6 1.2l-9.5.5c.1.7.4 1.2.8 1.7.5.5 1 .8 1.7 1a7.6 7.6 0 003.8.1l1.2-.3.9-.4.8-.3.7-.2c.4 0 .7 0 1.1.3.4.2.7.6 1 1.1l.4.8.1.8c0 .7-.3 1.3-.9 1.8-.6.5-1.5 1-2.7 1.3-1.3.1-2.8.4-4.4.4zm-4.9-11.6l6.3-.3c.4 0 .7-.1.9-.3.2-.2.3-.4.3-.9s-.2-.9-.5-1.2c-.3-.4-.7-.6-1.2-.8s-1.1-.2-1.8-.2c-.8 0-1.5.2-2.1.6s-1.1.8-1.4 1.4c-.4.5-.5 1.1-.5 1.7zM101 42.5c-1 0-1.7-.1-2.1-.4s-.7-.7-.8-1.1l-.1-1.5-.2-14 .1-1.4c.1-.5.3-.8.8-1.1.4-.3 1.1-.4 2.1-.4s1.7.2 2.2.6.7 1 .7 1.9l-.5.4.5-.7 1-1c.4-.4.9-.7 1.5-.9a4 4 0 011.9-.4 6 6 0 012.4.4c.7.2 1.4.6 1.9 1.1.6.5 1.1 1.1 1.5 1.8l1.3-1.6a7 7 0 011.9-1.3c.7-.4 1.5-.5 2.4-.5 1.6 0 2.9.4 4 1.1s1.9 1.9 2.5 3.3c.6 1.5.9 3.2.9 5.3l.1 7.2-.1 1.5c-.1.5-.4.8-.8 1.1-.4.3-1.1.4-2.1.4s-1.7-.1-2.1-.4-.7-.7-.8-1.1l-.1-1.5-.1-7.2c0-.8-.1-1.5-.3-2.1s-.5-1-.9-1.3-.9-.5-1.4-.4a3 3 0 00-1.6.5c-.4.3-.7.7-.9 1.3-.2.6-.3 1.3-.3 2.2l.1 7.2-.2 1.5c-.1.5-.4.8-.8 1.1s-1.1.4-2.1.4c-.9 0-1.6-.1-2-.4s-.6-.7-.7-1.2l-.1-1.4-.1-7.2c0-.8-.1-1.5-.3-2.1s-.5-1-.9-1.3-.9-.4-1.5-.4c-.7 0-1.2.2-1.6.5-.4.4-.7.8-.9 1.4s-.3 1.2-.3 1.9l.1 7.2-.1 1.5c-.1.5-.3.8-.8 1.1l-2.3.4zM132.9 42.4c-1 0-1.7-.2-2.1-.5-.4-.3-.7-.7-.7-1.1l-.1-1.5.2-14 .2-1.5c.1-.5.4-.8.8-1.1.4-.3 1.1-.4 2.1-.4s1.6.2 2.1.5c.4.3.7.7.7 1.2l.1 1.5-.2 13.9-.2 1.5c-.1.5-.4.8-.8 1.1-.4.3-1.1.4-2.1.4zM146.8 43l-2.3-.3-2.4-.8c-.8-.3-1.4-.7-2-1.2-.5-.4-.8-.9-.8-1.5l.1-.9.4-.9.7-1c.2-.3.5-.5.7-.5.3-.1.6 0 .9.1l1.3.5 1.3.7a6.1 6.1 0 002.9 1c.7 0 1.3-.1 1.8-.3.4-.2.6-.5.7-.9l-.2-.7-.7-.5-1.1-.4-1.3-.4-1.4-.5-1.9-.8a5.4 5.4 0 01-3-5.5c0-1.3.4-2.4 1-3.2.6-.9 1.5-1.5 2.7-1.9s2.6-.6 4.3-.5l1.4.1 1.4.3 1.4.5 1.3.7c.8.4 1.2.9 1.2 1.6a3 3 0 01-.8 2c-.3.4-.6.7-1 .9s-.7.2-1 .2l-1.4-.6-1.5-.8c-.5-.2-1.1-.4-1.6-.4l-1.2.1c-.4.1-.6.3-.7.5a1 1 0 00-.3.7c0 .3.1.6.3.8l.8.5 1.2.4 1.5.4 2.2.6c.8.3 1.4.6 2 1.1.6.4 1.1 1 1.5 1.8.4.7.5 1.7.5 2.9a6 6 0 01-2.4 4.8c-1.6.9-3.8 1.4-6.5 1.3zM171.6 25.1c-.3-.4-.6-.7-1.1-.8l-1.4-.2-2.7-.1.2-3.9v-1.5c-.1-.5-.3-.9-.7-1.2-.4-.3-1.1-.5-2-.6-1-.1-1.7 0-2.1.3-.4.3-.7.6-.8 1l-.2 1.5-.3 4-1.2-.1c-.7 0-1.3.2-1.7.6s-.6 1.1-.7 2.1c-.1 1 0 1.8.3 2.2.3.5.8.7 1.6.8l1.4.1-.4 6.4c-.1 1.3 0 2.4.2 3.4s.7 1.8 1.2 2.4c.6.7 1.4 1.2 2.3 1.5 1 .4 2.1.6 3.5.7h1.5c.5 0 .9-.3 1.2-.7.3-.4.5-1.1.6-2s0-1.5-.3-1.9c-.2-.4-.6-.6-1-.8l-1.5-.3-.9-.1-.5-.3-.3-.6v-1.1l.4-6.1 2.7.2 1.5-.1c.5-.1.8-.3 1.1-.7s.5-1.1.5-2-.1-1.6-.4-2.1zM175.8 44.5c-1-.1-1.7-.3-2.1-.6-.4-.3-.6-.7-.7-1.2v-1.5l1.3-13.9.3-1.5c.2-.5.4-.8.9-1 .4-.2 1.2-.3 2.1-.2.9.1 1.6.3 2 .6.4.3.6.6.7.9l.1.9-.5.2.5-.5 1-.8c.4-.3.9-.5 1.5-.6.6-.2 1.3-.2 2-.1l1 .1 1.1.3c.4.2.7.3 1 .6l.7.8c.2.3.2.7.2 1.1-.1 1.1-.4 2-1 2.7s-1.2 1-2 1c-.5 0-.8-.1-.9-.2l-.4-.3-.4-.3-.9-.2-1.1.1-1 .4a3 3 0 00-.8.8l-.4 1.1-.8 8.7c0 .5-.1 1-.3 1.4-.1.5-.4.8-.9 1-.5.2-1.2.2-2.2.2zM211.5 30.4c-.1-.6-.6-1.2-1.6-1.9-1-.6-1.8-.8-2.4-.7-.6.1-1.2.7-1.8 1.7l-4.9 7.7-4.4-9.5c-.4-1-.9-1.6-1.5-1.8-.5-.2-1.4-.1-2.5.4-1 .5-1.7 1-1.8 1.5-.2.6-.1 1.3.4 2.3l6 13-4.5 7.1c-.6.9-.9 1.7-.8 2.3.1.6.6 1.2 1.6 1.9 1 .6 1.8.9 2.4.8s1.1-.7 1.7-1.7l13.3-20.9c.6-.9.9-1.6.8-2.2zM136.9 13.8c-.8-.8-2.2-.5-3.6.4-1.4-1-2.9-1.2-3.6-.4-.9.9-.4 2.9 1.1 4.4v.1c.6.6 1.2 1 1.9 1.3.4.2.8.2 1.1 0 .6-.3 1.3-.7 1.9-1.3v-.1c1.6-1.5 2.1-3.5 1.2-4.4z"/><g><path class="cl12" d="M112 110a298 298 0 01-49.9 3 6.3 6.3 0 01-5.8-5.1 298 298 0 01-3-49.9 6.3 6.3 0 015.1-5.8 298 298 0 0149.9-3c2.8.1 5.4 2.4 5.8 5.1a298 298 0 013 49.9 6 6 0 01-5.1 5.8z"/><path class="cl9" d="M78.1 93.6a11 11 0 01-3.6-.3c-1.2-.3-2.4-.7-3.5-1.4a11.8 11.8 0 01-5.3-5.9 13 13 0 01-1-4.6 12.7 12.7 0 012.3-8.1c.8-1.1 1.7-2 2.8-2.7a15.4 15.4 0 017-2.5 11 11 0 013.2.2l2.2.7 1.1.5 1.2.7c.4.3.6.6.6 1.1l-.1.7-.4.7c-.3.4-.5.8-.8 1s-.5.3-.8.3-.5 0-.7-.2l-.9-.5-.8-.4-1.5-.5a9.5 9.5 0 00-5.1.6c-1 .4-1.8 1-2.5 1.8s-1.3 1.7-1.7 2.7a9.5 9.5 0 00.4 7.1c.5 1 1.2 1.9 2 2.5a7 7 0 002.7 1.4c1 .3 2 .4 3 .4.8 0 1.5-.2 2.1-.4s1.1-.4 1.5-.7l.9-.6.7-.5c.2-.2.5-.2.7-.3l.9.2.9.9.4.7.2.7c0 .4-.2.8-.5 1.1l-1.1.8-1.1.7c-.5.3-1.2.7-2.1 1-1 .8-2 1-3.3 1.1zM96.6 92.3a8 8 0 01-3.1-.4 6 6 0 01-2.5-1.6 10 10 0 01-1.8-2.6c-.4-1-.7-2.1-.8-3.4l-.4-7.2.1-1.1c.1-.3.2-.6.5-.8s.8-.3 1.4-.4c.7 0 1.2 0 1.5.2s.5.4.6.8l.2 1.1.4 7.1c.1.9.2 1.6.6 2.2.3.6.8 1.1 1.4 1.4a4.8 4.8 0 004.4-.3c.6-.4 1-.9 1.3-1.6.3-.7.4-1.4.4-2.2l-.4-7.2.1-1.1c.1-.3.2-.6.5-.8s.8-.3 1.5-.4c.7 0 1.2 0 1.5.2s.5.4.6.8l.2 1.1.8 13.4-.1 1c-.1.3-.2.6-.5.8s-.8.3-1.4.4l-1.2-.1-.7-.4-.3-.5-.1-.6.3-1-.6.8-1 1-1.4.8c-.7.4-1.3.5-2 .6z"/><g><path class="cl9" d="M58.4 62.4l-.4-.1-.1-.3.1-.3.2-.3 1.5-1.8.5-.7.1-.6c0-.3-.1-.5-.3-.6l-.7-.2-.5.1-.5.3-.3.1-.2-.1-.1-.2v-.3l.2-.2.7-.4.9-.2 1 .1.7.5c.2.2.2.5.3.8l-.1.7-.3.7a3 3 0 01-.5.7l-1.4 1.7v-.3l2.3-.1.3.1.1.3-.1.3-.3.1-3.1.2zM64 62.2l-.7-.1-.7-.3-.2-.2v-.3l.1-.2.2-.1.3.1.5.2h.5c.3 0 .6-.1.8-.3.2-.2.4-.4.4-.7l.1-1.1v-.6h.1a1.4 1.4 0 01-.7 1.2l-.7.2c-.3 0-.6 0-.9-.2a.9.9 0 01-.6-.6l-.3-.9c0-.4 0-.7.2-1 .1-.3.3-.5.6-.7s.6-.3 1-.3c.5 0 .9.1 1.2.3.3.2.6.5.8.9s.3.9.3 1.5l-.1 1.3-.4 1c-.2.3-.4.5-.7.6l-1.1.3zm.1-3l.5-.2.3-.4.1-.5-.2-.5c-.1-.2-.2-.3-.4-.3l-.5-.1-.5.2-.3.4-.1.6.2.5c.1.2.2.3.4.3h.5z"/></g></g><g><path class="cl12" d="M178.2 113.1c-16.7.3-33.4-.8-49.9-3.2-2.7-.4-5-3-5.1-5.8-.3-16.7.8-33.4 3.2-49.9.4-2.7 3-5 5.8-5.1 16.7-.3 33.4.8 49.9 3.2 2.7.4 5 3 5.1 5.8.3 16.7-.8 33.4-3.2 49.9-.4 2.7-3 5-5.8 5.1z"/><path class="cl9" d="M138 92.1c-.7 0-1.2-.2-1.5-.4s-.5-.5-.5-.8l-.1-1.1 1.3-20.7.2-1.1c.1-.3.3-.6.7-.8.3-.2.8-.3 1.5-.2l7.6.5c1.1.1 2.1.3 3.1.7s1.8 1 2.6 1.8 1.4 1.7 1.7 2.8c.4 1.1.6 2.3.5 3.7s-.4 2.6-.9 3.6-1.2 1.9-2.1 2.5c-.9.7-1.8 1.1-2.8 1.4-1 .3-2.1.4-3.2.3l-5.4-.3-.4 6-.2 1.1c-.1.3-.3.6-.6.8l-1.5.2zm3-12.4l5.4.4 2.1-.3a4 4 0 001.6-1.3 4.8 4.8 0 00.3-4.4c-.3-.6-.7-1.1-1.3-1.5s-1.3-.6-2.2-.6l-5.4-.3-.5 8zM174.4 69.6c-.1-.3-.2-.6-.5-.8s-.8-.3-1.4-.4c-.7 0-1.2 0-1.5.2s-.5.4-.6.8l-.2 1.1-.5 8.1a6.1 6.1 0 00-1.9-1.7c-.9-.5-1.9-.8-3.1-.9-1.1-.1-2.1.1-3.1.5s-1.9 1-2.7 1.7c-.8.8-1.5 1.7-2 2.7a9.5 9.5 0 001.1 9.9c.7.9 1.5 1.5 2.5 2.1 1 .5 2 .8 3 .9a6.6 6.6 0 005.3-1.9l-.1.8c0 .5.2.9.5 1.1.3.2.8.4 1.5.4s1.2 0 1.5-.2.5-.4.6-.8l.2-1.1 1.4-21.4a2 2 0 000-1.1zm-6 18c-.4.7-1 1.2-1.7 1.5-.7.4-1.4.5-2.2.5-.8-.1-1.6-.3-2.2-.7-.7-.4-1.2-1-1.5-1.7s-.5-1.5-.4-2.4.3-1.7.7-2.4 1-1.2 1.7-1.5c.7-.4 1.5-.5 2.3-.4s1.6.3 2.2.7a5 5 0 011.5 1.7c.3.7.5 1.5.4 2.4-.1.8-.4 1.6-.8 2.3z"/><g><path class="cl9" d="M132.7 59.7l-.4-.2-.1-.4v-.6l-2-.1-.4-.1-.1-.3.1-.3.3-.4 2.4-3 .3-.2.3-.1.3.1.1.4-.2 3.3h.4l.3.1.1.3-.1.3-.4.1h-.4v.6l-.2.4-.3.1zm-.4-2l.2-2.5h.2l-2.1 2.6v-.3l1.7.2zM136.8 60c-.5 0-.9-.2-1.2-.4-.3-.2-.5-.6-.7-1s-.2-.9-.2-1.5l.2-1.3c.1-.4.3-.7.5-.9l.8-.5c.3-.1.7-.2 1-.1l.7.2.7.4.2.2v.3l-.1.2-.2.1-.3-.1-.5-.3a.9.9 0 00-.5-.1c-.3 0-.6 0-.8.2a1 1 0 00-.5.6l-.2 1.1v.6h-.1l.3-.7c.1-.2.3-.3.6-.4l.7-.1c.3 0 .6.1.8.3l.5.7.2.9c0 .4-.1.7-.3 1s-.4.5-.7.6h-.9zm0-.8l.5-.1.4-.3.2-.5-.1-.6-.3-.4-.5-.2-.5.1-.4.3-.2.5.1.5.3.4c.1.2.3.3.5.3z"/></g></g><g><path class="cl9" d="M199.5 80.9a5.4 5.4 0 012.2-7.3 6.7 6.7 0 019.1 2.8c2.2 4.1.6 9.2-3.5 11.4-5.1 2.7-11.6.9-14.2-4.3a15.9 15.9 0 01-1-10c2.9-17.9 25.5-32.5 32.8-22.8 5.2 6.9-10.7 16.5-10.7 16.5s13.2-8.3 16.1-1-12.6 9.6-12.6 9.6 8.3.5 6.4 6.3c-1.9 5.7-13.9 3.9-13.9 3.9"/><path class="cl10" d="M202.3 90.5a12 12 0 01-3.7-.6c-3-1-5.5-3-6.9-5.8a16.7 16.7 0 01-1.1-10.9 35.7 35.7 0 0123.9-26.7c5-1.2 9.2-.1 11.7 3.2a6.3 6.3 0 011.2 5.3c-.5 2.4-2.1 4.8-4.1 6.8 1.7-.3 3.4-.3 4.8.2a6 6 0 013.7 3.6c.7 1.8.6 3.5-.3 5.1-1.5 2.6-5 4.3-8.1 5.2.6.4 1.2 1 1.7 1.6.7 1 1.3 2.6.5 4.9-2.1 6.4-13 5.2-15.3 4.9-.7.7-1.4 1.2-2.3 1.7a10.4 10.4 0 01-5.7 1.5zm16-41.4c-1.1 0-2.1.2-3 .4a32.8 32.8 0 00-21.6 24.3c-.6 3.9-.4 6.5.9 9 1 2.1 2.8 3.6 5.1 4.3 2.3.7 4.9.5 7.1-.6a7 7 0 002.8-9.4 5.4 5.4 0 00-7.1-2.2c-.9.5-1.6 1.3-1.9 2.3s-.2 2 .3 3c.4.7.1 1.6-.6 2s-1.6.1-2-.6c-.9-1.6-1-3.5-.5-5.2a6.8 6.8 0 013.3-4.1c1.9-1 4.2-1.3 6.3-.6 2.1.6 3.8 2.1 4.9 4a10 10 0 01.2 8.9c3.6.2 9.4 0 10.4-3 .5-1.4 0-2.1-.1-2.3-1-1.5-3.9-2-4.9-2-.8-.1-1.4-.7-1.4-1.4 0-.8.5-1.4 1.3-1.5 2.6-.4 9.6-2 11.3-5 .4-.8.5-1.5.1-2.5a3 3 0 00-1.9-1.8c-3.4-1.1-9.6 2-11.9 3.5l-.2.1c-.7.4-1.6.2-2.1-.5s-.2-1.6.5-2.1l.2-.1c2.9-1.8 9.9-7 10.7-11.3.2-1.1 0-2-.7-2.9a6.3 6.3 0 00-5.5-2.7z"/></g><g><path class="cl9" d="M40.8 80.9c1.4-2.6.4-5.9-2.2-7.3a6.7 6.7 0 00-9.1 2.8A8.4 8.4 0 0033 87.8c5.1 2.7 11.6.9 14.2-4.3 1.5-3.1 1.6-6.1 1-10C45.3 55.6 22.7 41 15.4 50.7c-5.2 6.9 10.7 16.5 10.7 16.5s-13.2-8.3-16.1-1 12.6 9.6 12.6 9.6-8.3.5-6.4 6.3c1.9 5.7 13.9 3.9 13.9 3.9"/><path class="cl10" d="M38 90.5c-2 0-4-.5-5.7-1.4-.9-.5-1.6-1-2.3-1.7-2.3.3-13.2 1.4-15.3-4.9-.8-2.3-.1-4 .5-4.9.5-.7 1-1.2 1.7-1.6-3.1-1-6.6-2.6-8.1-5.2-.9-1.6-1-3.3-.3-5.1a6 6 0 013.7-3.6c1.5-.5 3.1-.5 4.8-.2-2-2.1-3.6-4.4-4.1-6.8-.4-1.9 0-3.7 1.2-5.3 2.5-3.3 6.6-4.5 11.7-3.2a35.9 35.9 0 0123.9 26.7c.7 4.5.4 7.8-1.1 10.9a11.1 11.1 0 01-6.9 5.8c-1.3.4-2.5.5-3.7.5zm-2.6-16.2l-1.5.2a5.5 5.5 0 00-3.1 2.5 7 7 0 002.8 9.4 8.8 8.8 0 007.1.6 8.4 8.4 0 005.1-4.3c1.3-2.5 1.5-5.1.9-9a33.1 33.1 0 00-21.6-24.3c-2.7-.7-6.3-.8-8.5 2.1-.7.9-.9 1.8-.7 2.9.8 4.3 7.8 9.5 10.7 11.3l.2.1c.7.4.9 1.4.5 2.1s-1.4.9-2.1.5l-.2-.1c-2.3-1.4-8.6-4.6-11.9-3.5-.9.3-1.5.9-1.9 1.8s-.3 1.7.1 2.5c1.7 3 8.8 4.7 11.3 5 .8.1 1.3.8 1.3 1.5 0 .8-.6 1.4-1.4 1.4-1 .1-3.9.6-4.9 2-.1.2-.6.9-.1 2.3 1 3 6.8 3.3 10.4 3a10 10 0 01.2-8.9c1-1.9 2.8-3.4 4.9-4s4.3-.4 6.3.6a7 7 0 012.8 9.3c-.4.7-1.3 1-2 .6s-1-1.3-.6-2a4 4 0 00-1.6-5.3c-.8-.1-1.6-.3-2.5-.3z"/></g></g></g><g transform="translate(20, 4497)" id="s20-4497"><g transform="translate(-0.0, -0.0)"><style>.cl13 {
    display: inline
    }
.cl14 {
    fill: #be33c1
    }
.cl15 {
    fill: #fff
    }
.cl16, .cl17 {
    fill: #ff9dcc
    }
.cl17 {
    stroke: #ff9dcc;
    stroke-linecap: round;
    stroke-linejoin: round;
    stroke-miterlimit: 10
    }</style><path class="cl15" d="M141.7 30a4 4 0 013.5-4.5 5 5 0 015.6 4.4c.5 3.5-2 6.6-5.4 7a7.8 7.8 0 01-8.8-6.8c-.3-2.5.5-4.7 2-7.2 6.8-11.7 26.5-16 29-7.2 1.8 6.2-11.9 8.7-11.9 8.7s11.5-2.3 11.6 3.6-11.4 3.3-11.4 3.3 5.7 2.6 2.8 6.1c-2.8 3.5-10.8-1-10.8-1"/><path class="cl17" d="M141.1 37.5a8.6 8.6 0 01-5.7-7.3c-.2-2.5.4-5 2.2-7.9 5-8.5 16.3-13.2 23.8-12.3 3.8.5 6.4 2.4 7.3 5.4.4 1.4.2 2.8-.6 4a11 11 0 01-4.7 3.7c1.3.2 2.5.7 3.4 1.4 1 .9 1.6 2 1.6 3.5 0 1.4-.5 2.6-1.5 3.4-1.8 1.5-4.7 1.7-7.1 1.5.3.5.6 1 .7 1.6a4 4 0 01-1 3.6c-3 4-10.4.2-12-.6-.6.3-1.2.5-2 .6-1.5.1-3 0-4.4-.6zm22.2-24.7c-.7-.3-1.5-.5-2.2-.5a24.7 24.7 0 00-21.6 11.1c-1.5 2.6-2 4.5-1.8 6.6.2 1.7 1 3.3 2.4 4.4a6.9 6.9 0 005.1 1.4c2.9-.3 4.9-3 4.5-5.8a4 4 0 00-4.3-3.4 2.9 2.9 0 00-2.6 3.3 1.1 1.1 0 11-2.2.3 5.1 5.1 0 014.5-5.8 6.1 6.1 0 016.9 5.4c.3 2.4-.6 4.7-2.3 6.2 2.5 1.2 6.6 2.6 8.1.7.7-.9.6-1.5.6-1.6-.3-1.3-2.3-2.5-3-2.8a1.1 1.1 0 01.8-2c1.9.3 7.2 1 9.2-.6.5-.4.8-1 .8-1.7 0-.8-.3-1.3-.8-1.8-2.1-1.6-7.3-1-9.3-.7h-.2a1.1 1.1 0 01-.4-2.2h.2c2.5-.5 8.8-2.3 10.5-5 .5-.8.6-1.5.3-2.3a4.9 4.9 0 00-3.2-3.2z"/><path class="cl14" d="M46.5 32.3a8 8 0 01-6.2-1.6 8.5 8.5 0 01-2.2-2.5 9.5 9.5 0 01-1-6.7 8.2 8.2 0 013.7-5 9.1 9.1 0 018-.7l1 .5c.3.2.5.5.5.8v.5l-.2.7c-.2.4-.4.7-.7.9l-.6.4a20.3 20.3 0 01-2-.6 8.2 8.2 0 00-2.3 0c-.9 0-1.7.4-2.3.9-.6.5-1.1 1.2-1.4 2-.3.7-.4 1.5-.2 2.5.1 1 .5 1.7 1 2.4s1.2 1.2 2 1.5c.8.4 1.6.5 2.4.3a10.2 10.2 0 002-.5l.7-.4-.4-2.9-2.5.4H45a.8.8 0 01-.6-.2l-.3-1v-1.2l.5-.5.7-.2 4.5-.7 1.1.1.6.6.2.8.8 5.2c0 .4 0 .8-.3 1.3s-.7.8-1.3 1.3l-1.2.6a12.5 12.5 0 01-3.2 1zM61.8 30.6a8 8 0 01-6-2.4 8.4 8.4 0 01-2.4-6 9 9 0 012.4-6.2 8.1 8.1 0 015.8-2.5 8.1 8.1 0 015.9 2.5 8.6 8.6 0 012.4 6.1 8.7 8.7 0 01-5 7.9c-1 .4-2 .6-3.1.6zm-.1-3.6c.6 0 1.2-.1 1.8-.4a4.8 4.8 0 002.4-2.6 5.3 5.3 0 00-1-5.4c-.4-.5-.9-.8-1.5-1a4.3 4.3 0 00-3.5 0c-.5.2-1 .5-1.5 1a5.2 5.2 0 00-1.3 3.5 5 5 0 001.3 3.5c.5.4 1 .8 1.5 1 .6.3 1.1.4 1.8.4zM79.8 29.7a8 8 0 01-5.9-2.5 8.4 8.4 0 01-2.4-6 9 9 0 012.4-6.1 8.1 8.1 0 015.7-2.6 8.1 8.1 0 016 2.5 8.6 8.6 0 012.4 6.1 8.7 8.7 0 01-5 8c-1 .4-2 .6-3.2.6zm0-3.7c.6 0 1.1 0 1.7-.3s1-.6 1.5-1l1-1.6a5.3 5.3 0 00-1-5.5c-.5-.4-1-.8-1.5-1a4.3 4.3 0 00-3.5 0c-.6.2-1 .6-1.5 1a5.2 5.2 0 00-1.4 3.5 5 5 0 001.4 3.5c.4.4.9.8 1.5 1s1 .4 1.7.4zM97.3 29.7a8 8 0 01-5.7-3 8.5 8.5 0 01-1.6-2.9 9.5 9.5 0 01.5-6.7 8.2 8.2 0 014.8-4.1 9.1 9.1 0 018 1.1l.8.7.3.9-.1.5-.4.6-.8.7c-.3.2-.5.3-.8.2a21 21 0 01-1.8-1 8.2 8.2 0 00-2.2-.5c-.9 0-1.7 0-2.4.4-.8.4-1.4 1-1.8 1.6-.5.7-.7 1.5-.8 2.4 0 1 0 1.9.5 2.6.3.8.8 1.5 1.5 2s1.5.7 2.4.8h2l.8-.3.2-3h-2.5l-.8-.2a.8.8 0 01-.5-.4l-.1-1.1c0-.6.1-1 .3-1.1l.6-.4h.7l4.5.3c.5 0 1 .2 1.1.4.2.1.4.4.4.6v.9l-.3 5.2c0 .4-.2.8-.6 1.1-.4.4-.9.8-1.5 1l-1.3.4a12.5 12.5 0 01-3.4.3zM108 29.9c-.6 0-1-.2-1.3-.4a1 1 0 01-.4-.7v-1l1.5-13c0-.2 0-.5.2-.8 0-.2.2-.5.5-.6.3-.1.7-.2 1.3-.1.6 0 1 .2 1.3.4.2.2.3.4.3.7v1L110.1 27l6.5.7.8.1.5.5c.2.2.2.6.1 1.1 0 .5-.1.9-.3 1a1 1 0 01-.7.4h-.7L108 30zM121 31.5c-.5 0-1-.2-1.1-.4a1 1 0 01-.4-.7v-1l2-12.9c.1-.6.3-1 .7-1.3.3-.2.8-.3 1.5-.2l8.9 1.4.9.2.6.6v1.3c0 .6-.2 1-.4 1.2a1 1 0 01-.8.3h-.9l-7.1-1.1-.5 3 4.9.8.8.2c.3 0 .4.2.5.5v1.1c0 .5-.2.9-.3 1-.2.3-.4.4-.7.4l-.9-.1-4.8-.7-.5 3.1 7.2 1.1.9.3c.2 0 .4.3.6.5v1.3c0 .6-.2 1-.4 1.2a1 1 0 01-.8.4h-.9l-9-1.5z"/><g><path class="cl15" d="M22 36.4s-8 4.5-10.8 1c-2.9-3.5 2.8-6 2.8-6S2.5 33.7 2.6 28c0-5.9 11.5-3.6 11.5-3.6S.5 22 2.3 15.7c2.5-8.8 22.2-4.5 29 7.2 1.5 2.5 2.3 4.7 2 7.2a7.8 7.8 0 01-8.8 6.8 6.3 6.3 0 01-5.5-7 5 5 0 015.7-4.4 4 4 0 013.5 4.5"/><path class="cl17" d="M24.4 38c-.8 0-1.5-.2-2.1-.5-1.5.8-8.8 4.5-12 .6a4 4 0 01-1-3.6l.8-1.6c-2.4.2-5.3 0-7-1.5-1.1-.8-1.6-2-1.6-3.4S2 25.4 3 24.5c1-.7 2-1.2 3.4-1.4a11 11 0 01-4.7-3.7c-.8-1.2-1-2.6-.6-4 .9-3 3.4-4.9 7.3-5.4 7.5-1 18.8 3.8 23.8 12.3 1.7 3 2.4 5.4 2.1 8a8.6 8.6 0 01-5.6 7.2c-1.4.6-3 .7-4.4.6zm-21-22c-.3.8-.2 1.5.3 2.2 1.7 2.8 8 4.6 10.5 5l.2.1a1.1 1.1 0 01-.5 2.2h-.1c-2-.4-7.2-1-9.3.7-.5.5-.8 1-.8 1.8 0 .7.2 1.3.8 1.7 2 1.6 7.3 1 9.2.5a1.1 1.1 0 01.7 2.1c-.6.3-2.6 1.5-2.9 2.8 0 .1-.1.7.6 1.6 1.5 1.9 5.6.5 8-.7a7.4 7.4 0 01-2.2-6.2 6.1 6.1 0 017-5.4 5.1 5.1 0 014.4 5.8 1.1 1.1 0 01-2.2-.3 2.9 2.9 0 00-2.6-3.3 4 4 0 00-4.3 3.4 5.2 5.2 0 004.4 5.8c1.9.3 3.7-.3 5.2-1.4a6.4 6.4 0 002.4-4.4c.2-2-.3-4-1.8-6.6-4.5-7.6-15-12-21.6-11.1-.7 0-1.5.2-2.3.5A4.9 4.9 0 003.4 16z"/></g></g></g><g transform="translate(20, 4567)" id="s20-4567"><g transform="translate(-0.0, -0.0)"><path d="M78.3 146.7c-2.4 0-4.7-.5-7-1.4-2.2-.9-4.2-2.2-6-4l-34.6-34.6 2.5-3.7A9.8 9.8 0 0144 99l16 4.3V46.7c0-1.5.4-2.6 1.3-3.5a5 5 0 013.7-1.5c1.4 0 2.6.5 3.5 1.5 1 .9 1.5 2 1.5 3.5v70l-20.7-5.5 23.2 23.1c.8.8 1.7 1.4 2.7 1.9 1 .3 2 .5 3.1.5h28.4a16 16 0 0011.8-4.9 16 16 0 004.8-11.8V90a5 5 0 015-5c1.5 0 2.6.5 3.5 1.5 1 .9 1.5 2 1.5 3.5v30c0 7.3-2.6 13.6-7.8 18.8a25.7 25.7 0 01-18.8 7.9H78.3zm2.9-48.4V70c0-1.4.4-2.6 1.3-3.5a5 5 0 013.7-1.5c1.4 0 2.6.5 3.5 1.5 1 .9 1.5 2 1.5 3.5v28.3h-10zm21 0V76.7c0-1.5.4-2.6 1.3-3.5a5 5 0 013.7-1.5c1.4 0 2.6.5 3.5 1.5 1 .9 1.5 2 1.5 3.5v21.6h-10z" fill="#fff"/><path d="M115.7 43.3c0 .6.4 1 1 1h30c.5 0 1-.4 1-1v-30c0-.5-.5-1-1-1H140a1 1 0 00-1 1v13.5a107.2 107.2 0 00-26.8-15 86.7 86.7 0 00-64.4 0c-9.6 3.6-18.5 8.6-26.8 15V13.3c0-.5-.4-1-1-1h-6.7a1 1 0 00-1 1v30c0 .6.5 1 1 1h30c.6 0 1-.4 1-1v-6.6c0-.6-.4-1-1-1H24a99 99 0 0125-15.1h0a79.2 79.2 0 0162 0h0c9.1 3.7 17.5 8.7 25.2 15h-19.4a1 1 0 00-1 1v6.7z" fill="#FF8BC3" stroke="#FF8BC3" stroke-width="2" stroke-linejoin="round"/></g></g><g transform="translate(20, 4747)" id="s20-4747"><g transform="translate(-0.0, -0.0)"><style>.cl18 {
    fill: #fff
    }
.cl19 {
    fill: #ff8bc3
    }
.cl20 {
    fill: #941298
    }</style><circle id="uid_12" class="cl18" cx="201" cy="21" r="20"/><path id="uid_13" class="cl18" d="M202.8 38.5a22 22 0 00-21.3-21.3 487.5 487.5 0 00-29 0 22 22 0 00-17.2 9.3 35.9 35.9 0 00-51.2 2.7 24 24 0 00-14.2-7 24 24 0 00-29.8 0 24 24 0 00-20 30.8 23.9 23.9 0 0020 30.8 24 24 0 0029.8 0 24 24 0 0014.2-7 36 36 0 0051.2 2.7 22 22 0 0017.2 9.3 488.7 488.7 0 0029 0 22 22 0 0021.3-21.3c.3-9.6.3-19.4 0-29z"/><g id="uid_14"><path class="cl19" d="M111 77a24 24 0 100-48 24 24 0 000 48zM181.1 76.8c-9.4.3-18.8.3-28.2 0a10 10 0 01-9.7-9.7c-.3-9.4-.3-18.8 0-28.2a10 10 0 019.7-9.7c9.4-.3 18.8-.3 28.2 0a10 10 0 019.7 9.7c.3 9.4.3 18.8 0 28.2a10 10 0 01-9.7 9.7zM79 46a12 12 0 00-14.1-11.8 12 12 0 00-19.8 0L43 34a12 12 0 00-9.7 19A12 12 0 0045 71.8a12 12 0 0019.8 0l2.1.2a12 12 0 009.7-19 12 12 0 002.3-7z"/></g><g id="uid_15"><path class="cl20" d="M201 9c-6.6 0-12 5.4-12 12s5.4 12 12 12 12-5.4 12-12-5.4-12-12-12zm0 21a9 9 0 110-18 9 9 0 010 18z"/><circle class="cl20" cx="201" cy="16.5" r="1.5"/><path class="cl20" d="M201 19.5c-.8 0-1.5.7-1.5 1.5v4.5c0 .8.7 1.5 1.5 1.5s1.5-.7 1.5-1.5V21c0-.8-.7-1.5-1.5-1.5z"/></g></g></g><g transform="translate(20, 4857)" id="s20-4857"><g transform="translate(-0.0, -0.0)"><style>.cl21 {
    fill: #fff
    }
.cl22 {
    fill: #ff8bc3
    }
.cl23 {
    fill: #c64ac8
    }</style><circle id="uid_17" class="cl21" cx="201" cy="21" r="20"/><path id="uid_18" class="cl21" d="M202.8 38.5a22 22 0 00-21.3-21.3 487.5 487.5 0 00-29 0 22 22 0 00-17.2 9.3 35.9 35.9 0 00-51.2 2.7 24 24 0 00-14.2-7 24 24 0 00-29.8 0 24 24 0 00-20 30.8 23.9 23.9 0 0020 30.8 24 24 0 0029.8 0 24 24 0 0014.2-7 36 36 0 0051.2 2.7 22 22 0 0017.2 9.3 488.7 488.7 0 0029 0 22 22 0 0021.3-21.3c.3-9.6.3-19.4 0-29z"/><g id="uid_19" opacity=".6"><path class="cl22" d="M111 77a24 24 0 100-48 24 24 0 000 48zM181.1 76.8c-9.4.3-18.8.3-28.2 0a10 10 0 01-9.7-9.7c-.3-9.4-.3-18.8 0-28.2a10 10 0 019.7-9.7c9.4-.3 18.8-.3 28.2 0a10 10 0 019.7 9.7c.3 9.4.3 18.8 0 28.2a10 10 0 01-9.7 9.7zM79 46a12 12 0 00-14.1-11.8 12 12 0 00-19.8 0L43 34a12 12 0 00-9.7 19A12 12 0 0045 71.8a12 12 0 0019.8 0l2.1.2a12 12 0 009.7-19 12 12 0 002.3-7z"/></g><g id="uid_20"><path class="cl23" d="M201 9c-6.6 0-12 5.4-12 12s5.4 12 12 12 12-5.4 12-12-5.4-12-12-12zm0 21a9 9 0 110-18 9 9 0 010 18z"/><circle class="cl23" cx="201" cy="16.5" r="1.5"/><path class="cl23" d="M201 19.5c-.8 0-1.5.7-1.5 1.5v4.5c0 .8.7 1.5 1.5 1.5s1.5-.7 1.5-1.5V21c0-.8-.7-1.5-1.5-1.5z"/></g></g></g><g transform="translate(20, 4967)" id="s20-4967"><g transform="translate(-0.0, -0.0)"><style>.cl24 {
    fill: #fff
    }
.cl25 {
    fill: #ff8bc3
    }
.cl26 {
    fill: #941298
    }</style><circle id="uid_22" class="cl24" cx="201" cy="21" r="20"/><path id="uid_23" class="cl24" d="M195.8 42.8l-1.2-.4-.4-1.2a14 14 0 00-20.6-7 13.3 13.3 0 00-4.5-3.3 13.4 13.4 0 00-24.2 0c-1.4.6-2.7 1.4-3.8 2.5a36 36 0 00-57.2-4 16 16 0 00-26.3 7.3l-1.8-.9-1.2-.4-.4-1.2a14 14 0 00-26.4 0l-.4 1.2-1.2.4a14 14 0 000 26.4l1.2.4.4 1.2a14 14 0 0019.7 7.6 19 19 0 0034 2.1 36 36 0 0056.6 3.2 16 16 0 0026.5-8.3l1.6.8 1.2.4.4 1.2a14 14 0 0026.4 0l.4-1.2 1.2-.4a14 14 0 000-26.4z"/><g id="uid_24"><path class="cl25" d="M191.7 54.1l-6.5-2.3-2.3-6.5a2 2 0 00-3.8 0l-2.3 6.5-6.5 2.3a2 2 0 000 3.8l6.5 2.3 2.3 6.5a2 2 0 003.8 0l2.3-6.5 6.5-2.3a2 2 0 000-3.8zM164.1 41.8l-4.3-1.6-1.6-4.3c-.4-1.2-2-1.2-2.4 0l-1.6 4.3-4.3 1.6c-1.2.4-1.2 2 0 2.4l4.3 1.6 1.6 4.3c.4 1.2 2 1.2 2.4 0l1.6-4.3 4.3-1.6c1.2-.4 1.2-2 0-2.4z"/><circle class="cl25" cx="111" cy="53" r="24"/><circle class="cl25" cx="65" cy="64" r="7"/><circle class="cl25" cx="73" cy="41" r="4"/><path class="cl25" d="M51.7 47.1l-6.5-2.3-2.3-6.5a2 2 0 00-3.8 0l-2.3 6.5-6.5 2.3a2 2 0 000 3.8l6.5 2.3 2.3 6.5a2 2 0 003.8 0l2.3-6.5 6.5-2.3a2 2 0 000-3.8z"/><circle class="cl25" cx="149" cy="65" r="4"/></g><g id="uid_25"><path class="cl26" d="M201 9c-6.6 0-12 5.4-12 12s5.4 12 12 12 12-5.4 12-12-5.4-12-12-12zm0 21a9 9 0 110-18 9 9 0 010 18z"/><circle class="cl26" cx="201" cy="16.5" r="1.5"/><path class="cl26" d="M201 19.5c-.8 0-1.5.7-1.5 1.5v4.5c0 .8.7 1.5 1.5 1.5s1.5-.7 1.5-1.5V21c0-.8-.7-1.5-1.5-1.5z"/></g></g></g><g transform="translate(20, 5077)" id="s20-5077"><g transform="translate(-0.0, -0.0)"><style>.cl27 {
    fill: #fff
    }
.cl28 {
    fill: #ff8bc3
    }
.cl29 {
    fill: #c64ac8
    }</style><circle id="uid_27" class="cl27" cx="201" cy="21" r="20"/><path id="uid_28" class="cl27" d="M195.8 42.8l-1.2-.4-.4-1.2a14 14 0 00-20.6-7 13.3 13.3 0 00-4.5-3.3 13.4 13.4 0 00-24.2 0c-1.4.6-2.7 1.4-3.8 2.5a36 36 0 00-57.2-4 16 16 0 00-26.3 7.3l-1.8-.9-1.2-.4-.4-1.2a14 14 0 00-26.4 0l-.4 1.2-1.2.4a14 14 0 000 26.4l1.2.4.4 1.2a14 14 0 0019.7 7.6 19 19 0 0034 2.1 36 36 0 0056.6 3.2 16 16 0 0026.5-8.3l1.6.8 1.2.4.4 1.2a14 14 0 0026.4 0l.4-1.2 1.2-.4a14 14 0 000-26.4z"/><g id="uid_29" opacity=".6"><path class="cl28" d="M191.7 54.1l-6.5-2.3-2.3-6.5a2 2 0 00-3.8 0l-2.3 6.5-6.5 2.3a2 2 0 000 3.8l6.5 2.3 2.3 6.5a2 2 0 003.8 0l2.3-6.5 6.5-2.3a2 2 0 000-3.8zM164.1 41.8l-4.3-1.6-1.6-4.3c-.4-1.2-2-1.2-2.4 0l-1.6 4.3-4.3 1.6c-1.2.4-1.2 2 0 2.4l4.3 1.6 1.6 4.3c.4 1.2 2 1.2 2.4 0l1.6-4.3 4.3-1.6c1.2-.4 1.2-2 0-2.4z"/><circle class="cl28" cx="111" cy="53" r="24"/><circle class="cl28" cx="65" cy="64" r="7"/><circle class="cl28" cx="73" cy="41" r="4"/><path class="cl28" d="M51.7 47.1l-6.5-2.3-2.3-6.5a2 2 0 00-3.8 0l-2.3 6.5-6.5 2.3a2 2 0 000 3.8l6.5 2.3 2.3 6.5a2 2 0 003.8 0l2.3-6.5 6.5-2.3a2 2 0 000-3.8z"/><circle class="cl28" cx="149" cy="65" r="4"/></g><g id="uid_30"><path class="cl29" d="M201 9c-6.6 0-12 5.4-12 12s5.4 12 12 12 12-5.4 12-12-5.4-12-12-12zm0 21a9 9 0 110-18 9 9 0 010 18z"/><circle class="cl29" cx="201" cy="16.5" r="1.5"/><path class="cl29" d="M201 19.5c-.8 0-1.5.7-1.5 1.5v4.5c0 .8.7 1.5 1.5 1.5s1.5-.7 1.5-1.5V21c0-.8-.7-1.5-1.5-1.5z"/></g></g></g><g transform="translate(20, 5187)" id="s20-5187"><g transform="translate(-0.0, -0.0)"><style>.cl30 {
    fill: #fff
    }
.cl31 {
    fill: #ff8bc3
    }
.cl32 {
    fill: #941298
    }</style><circle id="uid_32" class="cl30" cx="201" cy="21" r="20"/><path id="uid_33" class="cl30" d="M189 35h-.3A16 16 0 00173 22h-4.4c-3-3-7-5-11.6-5h-4a16 16 0 00-16 16v2H85v-2a16 16 0 00-16-16h-4a16 16 0 00-11.6 5H49a16 16 0 00-15.7 13H33a16 16 0 00-16 16v4a16 16 0 0016 16h.3A16 16 0 0049 84h4.4c3 3 7 5 11.6 5h4a16 16 0 0016-16v-2h52v2a16 16 0 0016 16h4c4.6 0 8.7-2 11.6-5h4.4a16 16 0 0015.7-13h.3a16 16 0 0016-16v-4a16 16 0 00-16-16z"/><g id="uid_34"><path class="cl31" d="M69 29h-4a4 4 0 00-4 4v40a4 4 0 004 4h4a4 4 0 004-4V33a4 4 0 00-4-4zM53 34h-4a4 4 0 00-4 4v30a4 4 0 004 4h4a4 4 0 004-4V38a4 4 0 00-4-4zM157 29h-4a4 4 0 00-4 4v40a4 4 0 004 4h4a4 4 0 004-4V33a4 4 0 00-4-4zM173 34h-4a4 4 0 00-4 4v30a4 4 0 004 4h4a4 4 0 004-4V38a4 4 0 00-4-4zM77 47h68v12H77zM29 51v4a4 4 0 004 4h8V47h-8a4 4 0 00-4 4zM189 47h-8v12h8a4 4 0 004-4v-4a4 4 0 00-4-4z"/></g><g id="uid_35"><path class="cl32" d="M201 9c-6.6 0-12 5.4-12 12s5.4 12 12 12 12-5.4 12-12-5.4-12-12-12zm0 21a9 9 0 110-18 9 9 0 010 18z"/><circle class="cl32" cx="201" cy="16.5" r="1.5"/><path class="cl32" d="M201 19.5c-.8 0-1.5.7-1.5 1.5v4.5c0 .8.7 1.5 1.5 1.5s1.5-.7 1.5-1.5V21c0-.8-.7-1.5-1.5-1.5z"/></g></g></g><g transform="translate(20, 5297)" id="s20-5297"><g transform="translate(-0.0, -0.0)"><style>.cl33 {
    fill: #fff
    }
.cl34 {
    fill: #ff8bc3
    }
.cl35 {
    fill: #c64ac8
    }</style><circle id="uid_37" class="cl33" cx="201" cy="21" r="20"/><path id="uid_38" class="cl33" d="M189 35h-.3A16 16 0 00173 22h-4.4c-3-3-7-5-11.6-5h-4a16 16 0 00-16 16v2H85v-2a16 16 0 00-16-16h-4a16 16 0 00-11.6 5H49a16 16 0 00-15.7 13H33a16 16 0 00-16 16v4a16 16 0 0016 16h.3A16 16 0 0049 84h4.4c3 3 7 5 11.6 5h4a16 16 0 0016-16v-2h52v2a16 16 0 0016 16h4c4.6 0 8.7-2 11.6-5h4.4a16 16 0 0015.7-13h.3a16 16 0 0016-16v-4a16 16 0 00-16-16z"/><g id="uid_39" opacity=".6"><path class="cl34" d="M69 29h-4a4 4 0 00-4 4v40a4 4 0 004 4h4a4 4 0 004-4V33a4 4 0 00-4-4zM53 34h-4a4 4 0 00-4 4v30a4 4 0 004 4h4a4 4 0 004-4V38a4 4 0 00-4-4zM157 29h-4a4 4 0 00-4 4v40a4 4 0 004 4h4a4 4 0 004-4V33a4 4 0 00-4-4zM173 34h-4a4 4 0 00-4 4v30a4 4 0 004 4h4a4 4 0 004-4V38a4 4 0 00-4-4zM77 47h68v12H77zM29 51v4a4 4 0 004 4h8V47h-8a4 4 0 00-4 4zM189 47h-8v12h8a4 4 0 004-4v-4a4 4 0 00-4-4z"/></g><g id="uid_40"><path class="cl35" d="M201 9c-6.6 0-12 5.4-12 12s5.4 12 12 12 12-5.4 12-12-5.4-12-12-12zm0 21a9 9 0 110-18 9 9 0 010 18z"/><circle class="cl35" cx="201" cy="16.5" r="1.5"/><path class="cl35" d="M201 19.5c-.8 0-1.5.7-1.5 1.5v4.5c0 .8.7 1.5 1.5 1.5s1.5-.7 1.5-1.5V21c0-.8-.7-1.5-1.5-1.5z"/></g></g></g><g transform="translate(20, 5407)" id="s20-5407"><g transform="translate(-0.0, -0.0)"><style>.cl36 {
    fill: #fff
    }
.cl37 {
    fill: #ff8bc3
    }
.cl38 {
    fill: #941298
    }</style><circle id="uid_42" class="cl36" cx="201" cy="21" r="20"/><path id="uid_43" class="cl36" d="M183.5 49.1a28 28 0 00-46.5-20 16 16 0 00-21.3-11A18 18 0 0097 21.9L85.4 33l-.3-.7C78 19 69.2 17 64.5 17c-15.6 0-24.4 19.3-25.8 32a20 20 0 1013.8 36 19.9 19.9 0 0012 4c8.1 0 15-4.8 18.2-11.7a15.9 15.9 0 0014 11.2l5.1.3h15.4l5.1-.3c7.3-.6 13-5.8 14.4-12.7A20 20 0 00155.4 89h.1c5 0 9.5-1.8 13-4.8a20 20 0 1015-35z"/><g id="uid_44"><path class="cl37" d="M125.5 41.9V33a4 4 0 00-8 0v1.3l-3.9-3.7a6 6 0 00-8.2 0l-18 17a6 6 0 006.1 10c0 5.1.1 10.2.5 15.3a4 4 0 003.6 3.6l4.8.3a2 2 0 002.1-2V64c0-1.1.9-2 2-2h6a2 2 0 012 2v10.8c0 1.2 1 2 2 2 1.7 0 3.3-.2 4.9-.3A4 4 0 00125 73c.4-5.1.5-10.2.5-15.3a6 6 0 006.4-1.5 6 6 0 00-.3-8.5l-6.1-5.7zM155.5 34a16 16 0 00-4 31.5V73a4 4 0 008 0v-7.5a16 16 0 00-4-31.5zM64.5 29c-7.7 0-14 15.7-14 23.5a14 14 0 0010 13.4V73a4 4 0 008 0v-7.1a14 14 0 0010-13.4c0-7.8-6.3-23.5-14-23.5z"/><circle class="cl37" cx="181.5" cy="69" r="8"/><circle class="cl37" cx="40.5" cy="69" r="8"/></g><g id="uid_45"><path class="cl38" d="M201 9c-6.6 0-12 5.4-12 12s5.4 12 12 12 12-5.4 12-12-5.4-12-12-12zm0 21a9 9 0 110-18 9 9 0 010 18z"/><circle class="cl38" cx="201" cy="16.5" r="1.5"/><path class="cl38" d="M201 19.5c-.8 0-1.5.7-1.5 1.5v4.5c0 .8.7 1.5 1.5 1.5s1.5-.7 1.5-1.5V21c0-.8-.7-1.5-1.5-1.5z"/></g></g></g><g transform="translate(20, 5517)" id="s20-5517"><g transform="translate(-0.0, -0.0)"><style>.cl39 {
    fill: #fff
    }
.cl40 {
    fill: #ff8bc3
    }
.cl41 {
    fill: #c64ac8
    }</style><circle id="uid_47" class="cl39" cx="201" cy="21" r="20"/><path id="uid_48" class="cl39" d="M183.5 49.1a28 28 0 00-46.5-20 16 16 0 00-21.3-11A18 18 0 0097 21.9L85.4 33l-.3-.7C78 19 69.2 17 64.5 17c-15.6 0-24.4 19.3-25.8 32a20 20 0 1013.8 36 19.9 19.9 0 0012 4c8.1 0 15-4.8 18.2-11.7a15.9 15.9 0 0014 11.2l5.1.3h15.4l5.1-.3c7.3-.6 13-5.8 14.4-12.7A20 20 0 00155.4 89h.1c5 0 9.5-1.8 13-4.8a20 20 0 1015-35z"/><g id="uid_49" opacity=".6"><path class="cl40" d="M125.5 41.9V33a4 4 0 00-8 0v1.3l-3.9-3.7a6 6 0 00-8.2 0l-18 17a6 6 0 006.1 10c0 5.1.1 10.2.5 15.3a4 4 0 003.6 3.6l4.8.3a2 2 0 002.1-2V64c0-1.1.9-2 2-2h6a2 2 0 012 2v10.8c0 1.2 1 2 2 2 1.7 0 3.3-.2 4.9-.3A4 4 0 00125 73c.4-5.1.5-10.2.5-15.3a6 6 0 006.4-1.5 6 6 0 00-.3-8.5l-6.1-5.7zM155.5 34a16 16 0 00-4 31.5V73a4 4 0 008 0v-7.5a16 16 0 00-4-31.5zM64.5 29c-7.7 0-14 15.7-14 23.5a14 14 0 0010 13.4V73a4 4 0 008 0v-7.1a14 14 0 0010-13.4c0-7.8-6.3-23.5-14-23.5z"/><circle class="cl40" cx="181.5" cy="69" r="8"/><circle class="cl40" cx="40.5" cy="69" r="8"/></g><g id="uid_50"><path class="cl41" d="M201 9c-6.6 0-12 5.4-12 12s5.4 12 12 12 12-5.4 12-12-5.4-12-12-12zm0 21a9 9 0 110-18 9 9 0 010 18z"/><circle class="cl41" cx="201" cy="16.5" r="1.5"/><path class="cl41" d="M201 19.5c-.8 0-1.5.7-1.5 1.5v4.5c0 .8.7 1.5 1.5 1.5s1.5-.7 1.5-1.5V21c0-.8-.7-1.5-1.5-1.5z"/></g></g></g><g transform="translate(20, 5627)" id="s20-5627"><g transform="translate(-0.0, -0.0)"><style>.cl42 {
    fill: #fff
    }
.cl43 {
    fill: #ff8bc3
    }
.cl44 {
    fill: #941298
    }</style><circle id="uid_52" class="cl42" cx="201" cy="21" r="20"/><path id="uid_53" class="cl42" d="M200.8 44.5A14 14 0 00189 23c-4.6 0-8.1 1.4-10.6 2.7-2.4-1.3-5.9-2.7-10.5-2.7-4.7 0-8.2 1.4-10.6 2.7-2.4-1.3-6-2.7-10.6-2.7s-8 1.4-10.5 2.7a21.2 21.2 0 00-12.4-2.6 17.9 17.9 0 00-28 12.3 18 18 0 00-8.2 0v-.2A15 15 0 0077.1 21 83.5 83.5 0 0053.5 17c-10 0-19.7 4-26.5 11a34.7 34.7 0 00-10 25 34.7 34.7 0 0010 24.8c6.8 7 16.5 11 26.5 11 9.7 0 19-2.4 23.6-3.8a15 15 0 0010.5-14.4v-.1a18 18 0 008.2 0A18 18 0 00125 81.8c2.4 1.5 6.1 3.1 11.2 3.1 4.6 0 8.1-1.4 10.5-2.7 2.5 1.3 6 2.7 10.6 2.7s8.1-1.4 10.6-2.7c2.4 1.3 5.9 2.7 10.5 2.7 6.4 0 10.6-2.6 12.9-4.2a14 14 0 009.5-21.3 13.9 13.9 0 000-15z"/><g id="uid_54"><path class="cl43" d="M73.5 32.4c-1.8-.6-4.5-1.4-7.9-2v15.5l6.7.7a3 3 0 003.3-3v-8.4a3 3 0 00-2-2.8zM72.3 59.2l-6.7.8v15.5a81 81 0 008-2 3 3 0 002-2.9v-8.4a3 3 0 00-3.3-3zM29 53a23.8 23.8 0 0024.5 23.8c2.8 0 5.6-.2 8.1-.6V60.4c-3 .2-6 .4-8.3.4-5.3 0-8-3.6-8.3-7.9.3-4.2 3-7.9 8.3-7.9 2.3 0 5.3.2 8.3.5V29.7c-2.5-.4-5.3-.7-8-.7A23.8 23.8 0 0029 53z"/><circle class="cl43" cx="91.6" cy="52.9" r="6"/><circle class="cl43" cx="113.6" cy="38" r="6"/><circle class="cl43" cx="113.6" cy="67.9" r="6"/><path class="cl43" d="M178.4 43c-3.3 0-5-1.3-6.5-2.4-1.2-1-2-1.6-4-1.6s-2.9.7-4.1 1.6c-1.4 1-3.2 2.4-6.5 2.4s-5-1.3-6.5-2.4c-1.2-1-2-1.6-4-1.6s-2.9.7-4.1 1.6c-1.4 1-3.2 2.4-6.5 2.4s-5-1.3-6.5-2.4c-1.2-1-2.1-1.6-4-1.6a2 2 0 010-4c3.2 0 5 1.3 6.4 2.4 1.2 1 2.1 1.6 4 1.6 2 0 3-.7 4.2-1.6 1.4-1 3.1-2.4 6.4-2.4 3.4 0 5.1 1.3 6.5 2.4 1.3 1 2.1 1.6 4.1 1.6 2 0 2.9-.7 4-1.6 1.5-1 3.3-2.4 6.6-2.4s5 1.3 6.5 2.4c1.2 1 2 1.6 4 1.6s2.9-.7 4.1-1.6c1.4-1 3.2-2.4 6.5-2.4a2 2 0 010 4c-2 0-2.9.7-4 1.6-1.5 1-3.3 2.4-6.6 2.4zM178.4 73c-3.3 0-5-1.3-6.5-2.4-1.2-1-2-1.6-4-1.6s-2.9.7-4.1 1.6c-1.4 1-3.2 2.4-6.5 2.4s-5-1.3-6.5-2.4c-1.2-1-2-1.6-4-1.6s-2.9.7-4.1 1.6c-1.4 1-3.2 2.4-6.5 2.4s-5-1.3-6.5-2.4c-1.2-1-2.1-1.6-4-1.6a2 2 0 010-4c3.2 0 5 1.3 6.4 2.4 1.2 1 2.1 1.6 4 1.6 2 0 3-.7 4.2-1.6 1.4-1 3.1-2.4 6.4-2.4 3.4 0 5.1 1.3 6.5 2.4 1.3 1 2.1 1.6 4.1 1.6 2 0 2.9-.7 4-1.6 1.5-1 3.3-2.4 6.6-2.4s5 1.3 6.5 2.4c1.2 1 2 1.6 4 1.6s2.9-.7 4.1-1.6c1.4-1 3.2-2.4 6.5-2.4a2 2 0 010 4c-2 0-2.9.7-4 1.6-1.5 1-3.3 2.4-6.6 2.4zM178.3 58a9.8 9.8 0 01-6.5-2.5c-1.3-.9-2.2-1.6-4.2-1.6s-2.9.7-4 1.6c-1.5 1.1-3.3 2.4-6.6 2.4s-5.1-1.3-6.6-2.4c-1.2-.9-2.1-1.6-4.1-1.6-2 0-2.9.7-4.1 1.6-1.5 1.1-3.2 2.4-6.6 2.4-3.3 0-5-1.3-6.5-2.4-1.2-.9-2.1-1.6-4.1-1.6s-3 .7-4.2 1.6c-1.4 1.1-3.2 2.4-6.5 2.4s-5.1-1.3-6.5-2.4c-1.3-.9-2.2-1.6-4.2-1.6a2 2 0 010-4c3.4 0 5.1 1.4 6.6 2.4 1.2 1 2.1 1.6 4.1 1.6 2 0 2.9-.6 4.1-1.6 1.5-1 3.2-2.4 6.6-2.4 3.3 0 5 1.4 6.5 2.4 1.2 1 2.1 1.6 4.1 1.6 2 0 3-.6 4.2-1.6 1.4-1 3.2-2.4 6.5-2.4s5.1 1.4 6.5 2.4c1.3 1 2.2 1.6 4.2 1.6s2.9-.6 4.1-1.6c1.4-1 3.2-2.4 6.5-2.4 3.4 0 5.2 1.4 6.6 2.4 1.2 1 2.1 1.6 4.1 1.6s3-.6 4.2-1.6c1.4-1 3.2-2.4 6.5-2.4a2 2 0 010 4c-2 0-2.9.7-4.1 1.6a9.8 9.8 0 01-6.6 2.4z"/></g><g id="uid_55"><path class="cl44" d="M201 9c-6.6 0-12 5.4-12 12s5.4 12 12 12 12-5.4 12-12-5.4-12-12-12zm0 21a9 9 0 110-18 9 9 0 010 18z"/><circle class="cl44" cx="201" cy="16.5" r="1.5"/><path class="cl44" d="M201 19.5c-.8 0-1.5.7-1.5 1.5v4.5c0 .8.7 1.5 1.5 1.5s1.5-.7 1.5-1.5V21c0-.8-.7-1.5-1.5-1.5z"/></g></g></g><g transform="translate(20, 5737)" id="s20-5737"><g transform="translate(-0.0, -0.0)"><style>.cl45 {
    fill: #fff
    }
.cl46 {
    fill: #ff8bc3
    }
.cl47 {
    fill: #c64ac8
    }</style><circle id="uid_57" class="cl45" cx="201" cy="21" r="20"/><path id="uid_58" class="cl45" d="M200.8 44.5A14 14 0 00189 23c-4.6 0-8.1 1.4-10.6 2.7-2.4-1.3-5.9-2.7-10.5-2.7-4.7 0-8.2 1.4-10.6 2.7-2.4-1.3-6-2.7-10.6-2.7s-8 1.4-10.5 2.7a21.2 21.2 0 00-12.4-2.6 17.9 17.9 0 00-28 12.3 18 18 0 00-8.2 0v-.2A15 15 0 0077.1 21 83.5 83.5 0 0053.5 17c-10 0-19.7 4-26.5 11a34.7 34.7 0 00-10 25 34.7 34.7 0 0010 24.8c6.8 7 16.5 11 26.5 11 9.7 0 19-2.4 23.6-3.8a15 15 0 0010.5-14.4v-.1a18 18 0 008.2 0A18 18 0 00125 81.8c2.4 1.5 6.1 3.1 11.2 3.1 4.6 0 8.1-1.4 10.5-2.7 2.5 1.3 6 2.7 10.6 2.7s8.1-1.4 10.6-2.7c2.4 1.3 5.9 2.7 10.5 2.7 6.4 0 10.6-2.6 12.9-4.2a14 14 0 009.5-21.3 13.9 13.9 0 000-15z"/><g id="uid_59" opacity=".6"><path class="cl46" d="M73.5 32.4c-1.8-.6-4.5-1.4-7.9-2v15.5l6.7.7a3 3 0 003.3-3v-8.4a3 3 0 00-2-2.8zM72.3 59.2l-6.7.8v15.5a81 81 0 008-2 3 3 0 002-2.9v-8.4a3 3 0 00-3.3-3zM29 53a23.8 23.8 0 0024.5 23.8c2.8 0 5.6-.2 8.1-.6V60.4c-3 .2-6 .4-8.3.4-5.3 0-8-3.6-8.3-7.9.3-4.2 3-7.9 8.3-7.9 2.3 0 5.3.2 8.3.5V29.7c-2.5-.4-5.3-.7-8-.7A23.8 23.8 0 0029 53z"/><circle class="cl46" cx="91.6" cy="52.9" r="6"/><circle class="cl46" cx="113.6" cy="38" r="6"/><circle class="cl46" cx="113.6" cy="67.9" r="6"/><path class="cl46" d="M178.4 43c-3.3 0-5-1.3-6.5-2.4-1.2-1-2-1.6-4-1.6s-2.9.7-4.1 1.6c-1.4 1-3.2 2.4-6.5 2.4s-5-1.3-6.5-2.4c-1.2-1-2-1.6-4-1.6s-2.9.7-4.1 1.6c-1.4 1-3.2 2.4-6.5 2.4s-5-1.3-6.5-2.4c-1.2-1-2.1-1.6-4-1.6a2 2 0 010-4c3.2 0 5 1.3 6.4 2.4 1.2 1 2.1 1.6 4 1.6 2 0 3-.7 4.2-1.6 1.4-1 3.1-2.4 6.4-2.4 3.4 0 5.1 1.3 6.5 2.4 1.3 1 2.1 1.6 4.1 1.6 2 0 2.9-.7 4-1.6 1.5-1 3.3-2.4 6.6-2.4s5 1.3 6.5 2.4c1.2 1 2 1.6 4 1.6s2.9-.7 4.1-1.6c1.4-1 3.2-2.4 6.5-2.4a2 2 0 010 4c-2 0-2.9.7-4 1.6-1.5 1-3.3 2.4-6.6 2.4zM178.4 73c-3.3 0-5-1.3-6.5-2.4-1.2-1-2-1.6-4-1.6s-2.9.7-4.1 1.6c-1.4 1-3.2 2.4-6.5 2.4s-5-1.3-6.5-2.4c-1.2-1-2-1.6-4-1.6s-2.9.7-4.1 1.6c-1.4 1-3.2 2.4-6.5 2.4s-5-1.3-6.5-2.4c-1.2-1-2.1-1.6-4-1.6a2 2 0 010-4c3.2 0 5 1.3 6.4 2.4 1.2 1 2.1 1.6 4 1.6 2 0 3-.7 4.2-1.6 1.4-1 3.1-2.4 6.4-2.4 3.4 0 5.1 1.3 6.5 2.4 1.3 1 2.1 1.6 4.1 1.6 2 0 2.9-.7 4-1.6 1.5-1 3.3-2.4 6.6-2.4s5 1.3 6.5 2.4c1.2 1 2 1.6 4 1.6s2.9-.7 4.1-1.6c1.4-1 3.2-2.4 6.5-2.4a2 2 0 010 4c-2 0-2.9.7-4 1.6-1.5 1-3.3 2.4-6.6 2.4zM178.3 58a9.8 9.8 0 01-6.5-2.5c-1.3-.9-2.2-1.6-4.2-1.6s-2.9.7-4 1.6c-1.5 1.1-3.3 2.4-6.6 2.4s-5.1-1.3-6.6-2.4c-1.2-.9-2.1-1.6-4.1-1.6-2 0-2.9.7-4.1 1.6-1.5 1.1-3.2 2.4-6.6 2.4-3.3 0-5-1.3-6.5-2.4-1.2-.9-2.1-1.6-4.1-1.6s-3 .7-4.2 1.6c-1.4 1.1-3.2 2.4-6.5 2.4s-5.1-1.3-6.5-2.4c-1.3-.9-2.2-1.6-4.2-1.6a2 2 0 010-4c3.4 0 5.1 1.4 6.6 2.4 1.2 1 2.1 1.6 4.1 1.6 2 0 2.9-.6 4.1-1.6 1.5-1 3.2-2.4 6.6-2.4 3.3 0 5 1.4 6.5 2.4 1.2 1 2.1 1.6 4.1 1.6 2 0 3-.6 4.2-1.6 1.4-1 3.2-2.4 6.5-2.4s5.1 1.4 6.5 2.4c1.3 1 2.2 1.6 4.2 1.6s2.9-.6 4.1-1.6c1.4-1 3.2-2.4 6.5-2.4 3.4 0 5.2 1.4 6.6 2.4 1.2 1 2.1 1.6 4.1 1.6s3-.6 4.2-1.6c1.4-1 3.2-2.4 6.5-2.4a2 2 0 010 4c-2 0-2.9.7-4.1 1.6a9.8 9.8 0 01-6.6 2.4z"/></g><g id="uid_60"><path class="cl47" d="M201 9c-6.6 0-12 5.4-12 12s5.4 12 12 12 12-5.4 12-12-5.4-12-12-12zm0 21a9 9 0 110-18 9 9 0 010 18z"/><circle class="cl47" cx="201" cy="16.5" r="1.5"/><path class="cl47" d="M201 19.5c-.8 0-1.5.7-1.5 1.5v4.5c0 .8.7 1.5 1.5 1.5s1.5-.7 1.5-1.5V21c0-.8-.7-1.5-1.5-1.5z"/></g></g></g></svg>